<?xml version="1.0" encoding="utf-8"?>
<COLLADA xmlns="http://www.collada.org/2005/11/COLLADASchema" version="1.4.1">
  <asset />
  <library_images>
    <image id="mPltTreeOakLeafColor_Grd">
      <init_from>mPltTreeOakLeafColor_Grd.png</init_from>
    </image>
    <image id="mPltTreeOakTrunkColor_Grd">
      <init_from>mPltTreeOakTrunkColor_Grd.png</init_from>
    </image>
    <image id="mPltTreeOakTrunk_AlbGry">
      <init_from>mPltTreeOakTrunk_AlbGry.png</init_from>
    </image>
    <image id="mPltTreeOakTrunk_Mix">
      <init_from>mPltTreeOakTrunk_Mix.png</init_from>
    </image>
    <image id="mPltTreeOakTrunk_Nrm">
      <init_from>mPltTreeOakTrunk_Nrm.png</init_from>
    </image>
    <image id="mTreeOakLeafBack_AlbGry">
      <init_from>mTreeOakLeafBack_AlbGry.png</init_from>
    </image>
    <image id="mTreeOakLeafBack_Mix">
      <init_from>mTreeOakLeafBack_Mix.png</init_from>
    </image>
    <image id="mTreeOakLeafBack_Nrm">
      <init_from>mTreeOakLeafBack_Nrm.png</init_from>
    </image>
    <image id="mTreeOakLeafBack_OP">
      <init_from>mTreeOakLeafBack_OP.png</init_from>
    </image>
    <image id="mTreeOakLeaf_AlbGry">
      <init_from>mTreeOakLeaf_AlbGry.png</init_from>
    </image>
    <image id="mTreeOakLeaf_Mix">
      <init_from>mTreeOakLeaf_Mix.png</init_from>
    </image>
    <image id="mTreeOakLeaf_Nrm">
      <init_from>mTreeOakLeaf_Nrm.png</init_from>
    </image>
    <image id="mTreeOakLeaf_OP">
      <init_from>mTreeOakLeaf_OP.png</init_from>
    </image>
  </library_images>
  <library_materials>
    <material id="mPltTreeOakTrunk">
      <instance_effect url="#Effect_mPltTreeOakTrunk" />
    </material>
    <material id="mTreeOakLeaf">
      <instance_effect url="#Effect_mTreeOakLeaf" />
    </material>
    <material id="mTreeOakLeafBack">
      <instance_effect url="#Effect_mTreeOakLeafBack" />
    </material>
  </library_materials>
  <library_effects>
    <effect id="Effect_mPltTreeOakTrunk">
      <profile_COMMON>
        <newparam sid="surface_mPltTreeOakTrunk-bump">
          <surface type="2D">
            <init_from>mPltTreeOakTrunk_Nrm</init_from>
            <format>A8R8G8B8</format>
          </surface>
        </newparam>
        <newparam sid="sampler_mPltTreeOakTrunk-bump">
          <sampler2D>
            <source>surface_mPltTreeOakTrunk-bump</source>
            <wrap_s>WRAP</wrap_s>
            <wrap_t>WRAP</wrap_t>
          </sampler2D>
        </newparam>
        <newparam sid="surface_mPltTreeOakTrunk-diffuse">
          <surface type="2D">
            <init_from>mPltTreeOakTrunk_AlbGry</init_from>
            <format>A8R8G8B8</format>
          </surface>
        </newparam>
        <newparam sid="sampler_mPltTreeOakTrunk-diffuse">
          <sampler2D>
            <source>surface_mPltTreeOakTrunk-diffuse</source>
            <wrap_s>WRAP</wrap_s>
            <wrap_t>WRAP</wrap_t>
          </sampler2D>
        </newparam>
        <newparam sid="surface_mPltTreeOakTrunk-specular">
          <surface type="2D">
            <init_from>mPltTreeOakTrunk_Mix</init_from>
            <format>A8R8G8B8</format>
          </surface>
        </newparam>
        <newparam sid="sampler_mPltTreeOakTrunk-specular">
          <sampler2D>
            <source>surface_mPltTreeOakTrunk-specular</source>
            <wrap_s>WRAP</wrap_s>
            <wrap_t>WRAP</wrap_t>
          </sampler2D>
        </newparam>
        <technique sid="common">
          <phong>
            <bump>
              <texture texture="sampler_mPltTreeOakTrunk-bump" texcoord="CHANNEL0" />
            </bump>
            <diffuse>
              <texture texture="sampler_mPltTreeOakTrunk-diffuse" texcoord="CHANNEL0" />
            </diffuse>
            <specular>
              <texture texture="sampler_mPltTreeOakTrunk-specular" texcoord="CHANNEL0" />
            </specular>
            <emission>
              <color sid="emission">0 0 0 1</color>
            </emission>
          </phong>
        </technique>
      </profile_COMMON>
    </effect>
    <effect id="Effect_mTreeOakLeaf">
      <profile_COMMON>
        <newparam sid="surface_mTreeOakLeaf-bump">
          <surface type="2D">
            <init_from>mTreeOakLeaf_Nrm</init_from>
            <format>A8R8G8B8</format>
          </surface>
        </newparam>
        <newparam sid="sampler_mTreeOakLeaf-bump">
          <sampler2D>
            <source>surface_mTreeOakLeaf-bump</source>
            <wrap_s>WRAP</wrap_s>
            <wrap_t>WRAP</wrap_t>
          </sampler2D>
        </newparam>
        <newparam sid="surface_mTreeOakLeaf-specular">
          <surface type="2D">
            <init_from>mTreeOakLeaf_Mix</init_from>
            <format>A8R8G8B8</format>
          </surface>
        </newparam>
        <newparam sid="sampler_mTreeOakLeaf-specular">
          <sampler2D>
            <source>surface_mTreeOakLeaf-specular</source>
            <wrap_s>WRAP</wrap_s>
            <wrap_t>WRAP</wrap_t>
          </sampler2D>
        </newparam>
        <newparam sid="surface_mTreeOakLeaf-diffuse">
          <surface type="2D">
            <init_from>mTreeOakLeaf_AlbGry</init_from>
            <format>A8R8G8B8</format>
          </surface>
        </newparam>
        <newparam sid="sampler_mTreeOakLeaf-diffuse">
          <sampler2D>
            <source>surface_mTreeOakLeaf-diffuse</source>
            <wrap_s>WRAP</wrap_s>
            <wrap_t>WRAP</wrap_t>
          </sampler2D>
        </newparam>
        <technique sid="common">
          <phong>
            <bump>
              <texture texture="sampler_mTreeOakLeaf-bump" texcoord="CHANNEL0" />
            </bump>
            <specular>
              <texture texture="sampler_mTreeOakLeaf-specular" texcoord="CHANNEL0" />
            </specular>
            <diffuse>
              <texture texture="sampler_mTreeOakLeaf-diffuse" texcoord="CHANNEL0" />
            </diffuse>
            <emission>
              <color sid="emission">0 0 0 1</color>
            </emission>
          </phong>
        </technique>
      </profile_COMMON>
    </effect>
    <effect id="Effect_mTreeOakLeafBack">
      <profile_COMMON>
        <newparam sid="surface_mTreeOakLeafBack-bump">
          <surface type="2D">
            <init_from>mTreeOakLeafBack_Nrm</init_from>
            <format>A8R8G8B8</format>
          </surface>
        </newparam>
        <newparam sid="sampler_mTreeOakLeafBack-bump">
          <sampler2D>
            <source>surface_mTreeOakLeafBack-bump</source>
            <wrap_s>WRAP</wrap_s>
            <wrap_t>WRAP</wrap_t>
          </sampler2D>
        </newparam>
        <newparam sid="surface_mTreeOakLeafBack-diffuse">
          <surface type="2D">
            <init_from>mTreeOakLeafBack_AlbGry</init_from>
            <format>A8R8G8B8</format>
          </surface>
        </newparam>
        <newparam sid="sampler_mTreeOakLeafBack-diffuse">
          <sampler2D>
            <source>surface_mTreeOakLeafBack-diffuse</source>
            <wrap_s>WRAP</wrap_s>
            <wrap_t>WRAP</wrap_t>
          </sampler2D>
        </newparam>
        <newparam sid="surface_mTreeOakLeafBack-specular">
          <surface type="2D">
            <init_from>mTreeOakLeafBack_Mix</init_from>
            <format>A8R8G8B8</format>
          </surface>
        </newparam>
        <newparam sid="sampler_mTreeOakLeafBack-specular">
          <sampler2D>
            <source>surface_mTreeOakLeafBack-specular</source>
            <wrap_s>WRAP</wrap_s>
            <wrap_t>WRAP</wrap_t>
          </sampler2D>
        </newparam>
        <technique sid="common">
          <phong>
            <bump>
              <texture texture="sampler_mTreeOakLeafBack-bump" texcoord="CHANNEL0" />
            </bump>
            <diffuse>
              <texture texture="sampler_mTreeOakLeafBack-diffuse" texcoord="CHANNEL0" />
            </diffuse>
            <specular>
              <texture texture="sampler_mTreeOakLeafBack-specular" texcoord="CHANNEL0" />
            </specular>
            <emission>
              <color sid="emission">0 0 0 1</color>
            </emission>
          </phong>
        </technique>
      </profile_COMMON>
    </effect>
  </library_effects>
  <library_geometries>
    <geometry id="L01_01__mTreeOakLeaf-mesh" name="L01_01__mTreeOakLeaf">
      <mesh>
        <source id="L01_01__mTreeOakLeaf-position">
          <float_array id="L01_01__mTreeOakLeaf-position-array" count="468">-0.8339218 10.24037 2.387242 -0.2683091 12.1125 0.2121949 -2.282456 10.89225 1.163733 -1.76093 11.90183 0.05214167 1.108177 11.93877 0.8188422 1.021298 10.93458 2.046851 2.752091 9.263148 1.708196 1.699962 11.64472 0.375236 0.9536497 10.01621 2.175844 0.5747057 11.31053 1.334422 3.041247 11.4899 -0.3102579 3.794031 10.22248 0.2821252 -3.443705 8.764874 1.759196 -1.644475 10.96201 1.058502 -3.910622 10.08264 0.3219581 -2.79649 11.19476 0.1011057 -0.8618903 10.27814 2.159769 -1.683109 9.026888 2.692622 0.6706745 11.27539 1.150479 0.07566226 12.11657 -1.587036 -1.215072 11.54289 0.5239124 -1.315078 11.99986 -0.9953138 1.588574 12.06057 -1.616675 2.128595 11.61271 -0.1912794 -3.051914 9.833471 0.5455129 -1.387493 11.87602 -0.7246594 -3.619198 10.74044 -1.1503 -2.570733 11.81616 -1.670321 -0.5460019 11.51649 0.481801 -1.287881 10.39513 1.328048 -0.6761554 11.05801 -4.197548 0.1378183 11.60572 -1.441991 1.24157 11.39626 -3.719944 1.465478 11.67221 -2.170562 -1.356971 11.42677 -1.279209 -2.008617 11.11358 -2.693855 -0.9403918 8.52519 2.597766 -0.3596103 10.88436 0.9690788 -2.381273 9.470193 1.572576 -1.851879 10.72616 0.754555 1.013409 10.55817 1.518014 0.9180822 9.276478 2.4519 0.07850644 7.328164 3.080919 -0.156909 9.836903 1.595511 -1.696914 8.000009 2.435402 -1.601043 9.379424 1.651254 1.335562 9.779269 1.844762 1.684658 8.460149 2.658401 2.335112 10.22582 0.9452121 0.9336529 11.86481 -1.030955 0.3807224 10.637 1.122634 -0.1820886 11.54184 -0.05692959 2.337151 11.85126 -1.599222 3.281826 10.99311 -0.653111 3.062214 7.583001 1.871053 2.032506 10.03955 0.6624706 1.296347 8.358845 2.418744 0.9262353 9.694044 1.63956 3.350202 9.880669 -0.06646585 4.087701 8.573465 0.4543686 3.28341 10.66192 -2.305664 0.4784736 11.39756 -1.922535 2.522946 10.97252 -0.4766178 0.9818913 11.36206 -0.4931202 0.5509833 11.28201 -3.430616 2.027072 10.88026 -3.859232 -2.78968 6.950669 2.664447 -1.616152 9.306417 1.388159 -3.909285 8.237049 1.609983 -3.075359 9.446094 1.001996 -0.3979018 8.683043 2.036376 -0.8262869 7.358116 2.801236 -1.493457 5.903831 2.589091 -1.223169 8.620833 1.540058 -3.045555 6.865407 1.760508 -2.683191 8.328551 1.255763 0.1813554 8.355242 2.039746 -1.223169 8.620833 1.540058 0.2529823 6.895831 2.663399 -1.493457 5.903831 2.589091 2.449767 6.01331 2.247708 1.886982 8.705144 1.251248 0.6531038 6.86767 2.497218 0.560232 8.330196 1.881378 3.329287 8.527388 0.825717 1.886982 8.705144 1.251248 3.841777 7.09443 1.281725 2.449767 6.01331 2.247708 -2.825939 10.45495 -3.05308 -0.6196754 11.25017 -1.305035 -0.9608306 10.67495 -3.75533 0.08460441 11.11127 -2.640181 -1.776959 11.22579 -0.3288102 -0.6196754 11.25017 -1.305035 -3.104703 10.80673 -1.093953 -2.825939 10.45495 -3.05308 1.844125 10.32863 -3.404338 0.03646769 11.1127 -1.242572 2.529007 10.74784 -1.567115 1.381264 11.15142 -0.5440457 -0.9371688 10.91299 -2.384965 0.03646769 11.1127 -1.242572 -0.1404959 10.47319 -3.687211 1.844125 10.32863 -3.404338 0.7885394 5.043007 2.266448 0.4402359 7.909294 1.798782 -1.024964 5.897343 2.305188 -0.9901313 7.461941 2.026468 1.942119 7.768123 1.66712 2.351606 6.249586 1.891448 -3.830822 7.700767 0.8553212 -2.244287 10.07975 0.239701 -4.415689 9.01712 -0.5394292 -3.410481 10.23581 -0.7160969 -1.40385 9.435212 1.321901 -2.105206 8.094944 1.807429 0.1281266 8.756249 1.867566 -0.4278698 11.02696 0.109617 -1.74721 9.369393 1.510702 -1.825758 10.61726 0.5291145 1.084179 10.97041 0.05107236 1.603691 9.775785 0.9604323 2.610218 8.562691 0.3242202 1.504239 10.87394 -1.086649 0.6895539 9.097843 0.5359933 0.2951852 10.3797 -0.3173444 2.940378 10.89363 -1.566265 3.735661 9.689372 -0.901994 3.058962 7.137191 1.031567 2.300456 9.493715 -0.5263441 1.191713 7.866187 1.077728 0.9936158 9.149025 0.1601501 3.763036 9.354548 -0.8929582 4.38083 8.102581 -0.1347613 -2.573395 5.40838 1.422546 -1.692055 8.189299 1.209582 -3.823855 6.86074 0.8333242 -3.143665 8.296704 0.7862527 -0.4214075 7.510897 1.676639 -0.6892356 5.955552 1.858643 -0.06364747 7.169599 1.491216 -0.1224813 9.864133 0.3547082 -1.793058 8.128316 1.15927 -1.599926 9.578691 0.5379982 1.367043 9.596316 0.4047725 -0.1224813 9.864133 0.3547082 1.62346 8.148303 1.005991 -0.06364747 7.169599 1.491216 1.979328 5.197776 1.862131 1.34572 7.947786 1.092968 0.08315396 5.827036 1.692595 -0.03806184 7.353218 1.26488 2.859597 7.977705 1.078984 1.34572 7.947786 1.092968 3.419925 6.545826 1.478623 1.979328 5.197776 1.862131</float_array>
          <technique_common>
            <accessor source="#L01_01__mTreeOakLeaf-position-array" count="156" stride="3">
              <param name="X" type="float" />
              <param name="Y" type="float" />
              <param name="Z" type="float" />
            </accessor>
          </technique_common>
        </source>
        <source id="L01_01__mTreeOakLeaf-normal">
          <float_array id="L01_01__mTreeOakLeaf-normal-array" count="468">-0.1682975 0.7632094 0.6242661 -0.1682975 0.7632094 0.6242661 -0.1682975 0.7632094 0.6242661 -0.1682975 0.7632094 0.6242661 -0.1682975 0.7632094 0.6242661 -0.1682975 0.7632094 0.6242661 0.4324853 0.5714286 0.6966732 0.4324853 0.5714286 0.6966732 0.4324853 0.5714286 0.6966732 0.4324853 0.5714286 0.6966732 0.4324853 0.5714286 0.6966732 0.4324853 0.5714286 0.6966732 -0.4461839 0.5733855 0.6868885 -0.4461839 0.5733855 0.6868885 -0.4461839 0.5733855 0.6868885 -0.4461839 0.5733855 0.6868885 -0.4461839 0.5733855 0.6868885 -0.4461839 0.5733855 0.6868885 0.05088063 0.9549902 0.2915851 0.05088063 0.9549902 0.2915851 0.05088063 0.9549902 0.2915851 0.05088063 0.9549902 0.2915851 0.05088063 0.9549902 0.2915851 0.05088063 0.9549902 0.2915851 -0.4618395 0.702544 0.5420744 -0.4618395 0.702544 0.5420744 -0.4618395 0.702544 0.5420744 -0.4618395 0.702544 0.5420744 -0.4618395 0.702544 0.5420744 -0.4618395 0.702544 0.5420744 -0.1428571 0.9765166 -0.1604697 -0.1428571 0.9765166 -0.1604697 -0.1428571 0.9765166 -0.1604697 -0.1428571 0.9765166 -0.1604697 -0.1428571 0.9765166 -0.1604697 -0.1428571 0.9765166 -0.1604697 -0.1702544 0.5812133 0.7964775 -0.1702544 0.5812133 0.7964775 -0.1702544 0.5812133 0.7964775 -0.1702544 0.5812133 0.7964775 -0.1702544 0.5812133 0.7964775 -0.1702544 0.5812133 0.7964775 -0.1154599 0.4911937 0.8630137 -0.1154599 0.4911937 0.8630137 -0.1154599 0.4911937 0.8630137 -0.1154599 0.4911937 0.8630137 -0.1154599 0.4911937 0.8630137 -0.1154599 0.4911937 0.8630137 0.2309198 0.8180039 0.5264188 0.2309198 0.8180039 0.5264188 0.2309198 0.8180039 0.5264188 0.2309198 0.8180039 0.5264188 0.2309198 0.8180039 0.5264188 0.2309198 0.8180039 0.5264188 0.4657534 0.5342466 0.7064579 0.4657534 0.5342466 0.7064579 0.4657534 0.5342466 0.7064579 0.4657534 0.5342466 0.7064579 0.4657534 0.5342466 0.7064579 0.4657534 0.5342466 0.7064579 0.2524462 0.964775 -0.0704501 0.2524462 0.964775 -0.0704501 0.2524462 0.964775 -0.0704501 0.2524462 0.964775 -0.0704501 0.2524462 0.964775 -0.0704501 0.2524462 0.964775 -0.0704501 -0.1643836 0.5244619 0.8356164 -0.1643836 0.5244619 0.8356164 -0.1643836 0.5244619 0.8356164 -0.1643836 0.5244619 0.8356164 -0.1643836 0.5244619 0.8356164 -0.1643836 0.5244619 0.8356164 -0.2426614 0.3639922 0.9001957 -0.2426614 0.3639922 0.9001957 -0.2426614 0.3639922 0.9001957 -0.2426614 0.3639922 0.9001957 -0.2426614 0.3639922 0.9001957 -0.2426614 0.3639922 0.9001957 -0.2426614 0.3639922 0.9001957 -0.2426614 0.3639922 0.9001957 0.3131115 0.3796478 0.8708415 0.3131115 0.3796478 0.8708415 0.3131115 0.3796478 0.8708415 0.3131115 0.3796478 0.8708415 0.3131115 0.3796478 0.8708415 0.3131115 0.3796478 0.8708415 0.3131115 0.3796478 0.8708415 0.3131115 0.3796478 0.8708415 -0.1996086 0.9589041 -0.1976517 -0.1996086 0.9589041 -0.1976517 -0.1996086 0.9589041 -0.1976517 -0.1996086 0.9589041 -0.1976517 -0.1996086 0.9589041 -0.1976517 -0.1996086 0.9589041 -0.1976517 -0.1996086 0.9589041 -0.1976517 -0.1996086 0.9589041 -0.1976517 0.1056751 0.9569471 -0.2700587 0.1056751 0.9569471 -0.2700587 0.1056751 0.9569471 -0.2700587 0.1056751 0.9569471 -0.2700587 0.1056751 0.9569471 -0.2700587 0.1056751 0.9569471 -0.2700587 0.1056751 0.9569471 -0.2700587 0.1056751 0.9569471 -0.2700587 0.109589 0.1643836 0.9804305 0.109589 0.1643836 0.9804305 0.109589 0.1643836 0.9804305 0.109589 0.1643836 0.9804305 0.109589 0.1643836 0.9804305 0.109589 0.1643836 0.9804305 -0.5009785 0.5068493 0.702544 -0.5009785 0.5068493 0.702544 -0.5009785 0.5068493 0.702544 -0.5009785 0.5068493 0.702544 -0.5009785 0.5068493 0.702544 -0.5009785 0.5068493 0.702544 0.06262231 0.6144814 0.7866927 0.06262231 0.6144814 0.7866927 0.06262231 0.6144814 0.7866927 0.06262231 0.6144814 0.7866927 0.06262231 0.6144814 0.7866927 0.06262231 0.6144814 0.7866927 0.258317 0.5831702 0.7690802 0.258317 0.5831702 0.7690802 0.258317 0.5831702 0.7690802 0.258317 0.5831702 0.7690802 0.258317 0.5831702 0.7690802 0.258317 0.5831702 0.7690802 0.258317 0.5831702 0.7710372 0.258317 0.5831702 0.7710372 0.258317 0.5831702 0.7710372 0.258317 0.5831702 0.7710372 0.258317 0.5831702 0.7710372 0.258317 0.5831702 0.7710372 -0.2622309 0.146771 0.9530333 -0.2622309 0.146771 0.9530333 -0.2622309 0.146771 0.9530333 -0.2622309 0.146771 0.9530333 -0.2622309 0.146771 0.9530333 -0.2622309 0.146771 0.9530333 0.04696673 0.3816047 0.9236791 0.04696673 0.3816047 0.9236791 0.04696673 0.3816047 0.9236791 0.04696673 0.3816047 0.9236791 0.04696673 0.3816047 0.9236791 0.04696673 0.3816047 0.9236791 0.04696673 0.3816047 0.9236791 0.04696673 0.3816047 0.9236791 0.01174168 0.2641879 0.964775 0.01174168 0.2641879 0.964775 0.01174168 0.2641879 0.964775 0.01174168 0.2641879 0.964775 0.01174168 0.2641879 0.964775 0.01174168 0.2641879 0.964775 0.01174168 0.2641879 0.964775 0.01174168 0.2641879 0.964775</float_array>
          <technique_common>
            <accessor source="#L01_01__mTreeOakLeaf-normal-array" count="156" stride="3">
              <param name="X" type="float" />
              <param name="Y" type="float" />
              <param name="Z" type="float" />
            </accessor>
          </technique_common>
        </source>
        <source id="L01_01__mTreeOakLeaf-color">
          <float_array id="L01_01__mTreeOakLeaf-color-array" count="624">-0.2998047 12 0.3999023 1 -0.2998047 12 0.3999023 1 -0.2998047 12 0.3999023 1 -0.2998047 12 0.3999023 1 -0.2998047 12 0.3999023 1 -0.2998047 12 0.3999023 1 1.699219 11.39844 0.2998047 1 1.699219 11.39844 0.2998047 1 1.699219 11.39844 0.2998047 1 1.699219 11.39844 0.2998047 1 1.699219 11.39844 0.2998047 1 1.699219 11.39844 0.2998047 1 -1.799805 10.79688 1.099609 1 -1.799805 10.79688 1.099609 1 -1.799805 10.79688 1.099609 1 -1.799805 10.79688 1.099609 1 -1.799805 10.79688 1.099609 1 -1.799805 10.79688 1.099609 1 0.09997559 12.09375 -1.399414 0.7998047 0.09997559 12.09375 -1.399414 0.7998047 0.09997559 12.09375 -1.399414 0.7998047 0.09997559 12.09375 -1.399414 0.7998047 0.09997559 12.09375 -1.399414 0.7998047 0.09997559 12.09375 -1.399414 0.7998047 -1.5 11.79688 -0.7998047 1 -1.5 11.79688 -0.7998047 1 -1.5 11.79688 -0.7998047 1 -1.5 11.79688 -0.7998047 1 -1.5 11.79688 -0.7998047 1 -1.5 11.79688 -0.7998047 1 0.09997559 11.59375 -1.599609 0.7998047 0.09997559 11.59375 -1.599609 0.7998047 0.09997559 11.59375 -1.599609 0.7998047 0.09997559 11.59375 -1.599609 0.7998047 0.09997559 11.59375 -1.599609 0.7998047 0.09997559 11.59375 -1.599609 0.7998047 -0.3999023 10.69531 1.099609 1 -0.3999023 10.69531 1.099609 1 -0.3999023 10.69531 1.099609 1 -0.3999023 10.69531 1.099609 1 -0.3999023 10.69531 1.099609 1 -0.3999023 10.69531 1.099609 1 -0.09997559 9.695313 1.699219 1 -0.09997559 9.695313 1.699219 1 -0.09997559 9.695313 1.699219 1 -0.09997559 9.695313 1.699219 1 -0.09997559 9.695313 1.699219 1 -0.09997559 9.695313 1.699219 1 1 11.79688 -0.8999023 1 1 11.79688 -0.8999023 1 1 11.79688 -0.8999023 1 1 11.79688 -0.8999023 1 1 11.79688 -0.8999023 1 1 11.79688 -0.8999023 1 2.099609 9.898438 0.699707 1 2.099609 9.898438 0.699707 1 2.099609 9.898438 0.699707 1 2.099609 9.898438 0.699707 1 2.099609 9.898438 0.699707 1 2.099609 9.898438 0.699707 1 0.5 11.5 -1.899414 1 0.5 11.5 -1.899414 1 0.5 11.5 -1.899414 1 0.5 11.5 -1.899414 1 0.5 11.5 -1.899414 1 0.5 11.5 -1.899414 1 -1.699219 9.09375 1.5 1 -1.699219 9.09375 1.5 1 -1.699219 9.09375 1.5 1 -1.699219 9.09375 1.5 1 -1.699219 9.09375 1.5 1 -1.699219 9.09375 1.5 1 -1.199219 8.398438 1.599609 1 -1.199219 8.398438 1.599609 1 -1.199219 8.398438 1.599609 1 -1.199219 8.398438 1.599609 1 -1.199219 8.398438 1.599609 1 -1.199219 8.398438 1.599609 1 -1.199219 8.398438 1.599609 1 -1.199219 8.398438 1.599609 1 1.799805 8.59375 0.7998047 1 1.799805 8.59375 0.7998047 1 1.799805 8.59375 0.7998047 1 1.799805 8.59375 0.7998047 1 1.799805 8.59375 0.7998047 1 1.799805 8.59375 0.7998047 1 1.799805 8.59375 0.7998047 1 1.799805 8.59375 0.7998047 1 -0.3999023 11.29688 -1.099609 1 -0.3999023 11.29688 -1.099609 1 -0.3999023 11.29688 -1.099609 1 -0.3999023 11.29688 -1.099609 1 -0.3999023 11.29688 -1.099609 1 -0.3999023 11.29688 -1.099609 1 -0.3999023 11.29688 -1.099609 1 -0.3999023 11.29688 -1.099609 1 1 1 1 0.0009994507 1 1 1 0.0009994507 1 1 1 0.0009994507 1 1 1 0.0009994507 1 1 1 0.0009994507 1 1 1 0.0009994507 1 1 1 0.0009994507 1 1 1 0.0009994507 0 7.699219 1.299805 1 0 7.699219 1.299805 1 0 7.699219 1.299805 1 0 7.699219 1.299805 1 0 7.699219 1.299805 1 0 7.699219 1.299805 1 -2.699219 10.29688 0.09997559 1 -2.699219 10.29688 0.09997559 1 -2.699219 10.29688 0.09997559 1 -2.699219 10.29688 0.09997559 1 -2.699219 10.29688 0.09997559 1 -2.699219 10.29688 0.09997559 1 1 1 1 0.0009994507 1 1 1 0.0009994507 1 1 1 0.0009994507 1 1 1 0.0009994507 1 1 1 0.0009994507 1 1 1 0.0009994507 1.5 10.79688 -1.199219 0.6499023 1.5 10.79688 -1.199219 0.6499023 1.5 10.79688 -1.199219 0.6499023 1.5 10.79688 -1.199219 0.6499023 1.5 10.79688 -1.199219 0.6499023 1.5 10.79688 -1.199219 0.6499023 1.5 10.79688 -1.199219 0.6499023 1.5 10.79688 -1.199219 0.6499023 1.5 10.79688 -1.199219 0.6499023 1.5 10.79688 -1.199219 0.6499023 1.5 10.79688 -1.199219 0.6499023 1.5 10.79688 -1.199219 0.6499023 -1.799805 8 1.199219 0.7998047 -1.799805 8 1.199219 0.7998047 -1.799805 8 1.199219 0.7998047 -1.799805 8 1.199219 0.7998047 -1.799805 8 1.199219 0.7998047 -1.799805 8 1.199219 0.7998047 1 1 1 0.0009994507 1 1 1 0.0009994507 1 1 1 0.0009994507 1 1 1 0.0009994507 1 1 1 0.0009994507 1 1 1 0.0009994507 1 1 1 0.0009994507 1 1 1 0.0009994507 1.399414 7.796875 1.099609 1 1.399414 7.796875 1.099609 1 1.399414 7.796875 1.099609 1 1.399414 7.796875 1.099609 1 1.399414 7.796875 1.099609 1 1.399414 7.796875 1.099609 1 1.399414 7.796875 1.099609 1 1.399414 7.796875 1.099609 1</float_array>
          <technique_common>
            <accessor source="#L01_01__mTreeOakLeaf-color-array" count="156" stride="4">
              <param name="R" type="float" />
              <param name="G" type="float" />
              <param name="B" type="float" />
              <param name="A" type="float" />
            </accessor>
          </technique_common>
        </source>
        <source id="L01_01__mTreeOakLeaf-texcoord">
          <float_array id="L01_01__mTreeOakLeaf-texcoord-array" count="312">0.1706543 0.6928711 0.1706543 0.9875488 0.01262665 0.7983398 0.03341675 0.9568787 0.3078613 0.9577026 0.3286133 0.7991943 0.5043945 0.6982422 0.5043945 0.9928436 0.3461914 0.8035889 0.3669434 0.9621582 0.6416016 0.9630127 0.6621094 0.8045654 0.5043945 0.6982422 0.5043945 0.9928436 0.3461914 0.8035889 0.3669434 0.9621582 0.6416016 0.9630127 0.6621094 0.8045654 0.5043945 0.6982422 0.5043945 0.9928436 0.3461914 0.8035889 0.3669434 0.9621582 0.6416016 0.9630127 0.6621094 0.8045654 0.8393555 0.6970215 0.8393555 0.9917374 0.6723633 0.8024902 0.6933594 0.9610596 0.9775391 0.9619141 0.9985352 0.8034668 0.8393555 0.6970215 0.8393555 0.9917374 0.6723633 0.8024902 0.6933594 0.9610596 0.9775391 0.9619141 0.9985352 0.8034668 0.8393555 0.6970215 0.8393555 0.9917374 0.6723633 0.8024902 0.6933594 0.9610596 0.9775391 0.9619141 0.9985352 0.8034668 0.1706543 0.3613281 0.1706543 0.6560059 0.004096985 0.4667969 0.02601624 0.6252441 0.3151855 0.6262207 0.3371582 0.4677734 0.1706543 0.3613281 0.1706543 0.6560059 0.004096985 0.4667969 0.02601624 0.6252441 0.3151855 0.6262207 0.3371582 0.4677734 0.1706543 0.3613281 0.1706543 0.6560059 0.004096985 0.4667969 0.02601624 0.6252441 0.3151855 0.6262207 0.3371582 0.4677734 0.5029297 0.3540039 0.5029297 0.6486816 0.3344727 0.4594727 0.3564453 0.6179199 0.6459961 0.6188965 0.6674805 0.4604492 0.5029297 0.3540039 0.5029297 0.6486816 0.3344727 0.4594727 0.3564453 0.6179199 0.6459961 0.6188965 0.6674805 0.4604492 0.8388672 0.3554688 0.8388672 0.6557617 0.6640625 0.4609375 0.6845703 0.625 0.9775391 0.6257324 0.8388672 0.6557617 0.9985352 0.4619141 0.8388672 0.3554688 0.8388672 0.3554688 0.8388672 0.6557617 0.6640625 0.4609375 0.6845703 0.625 0.9775391 0.6257324 0.8388672 0.6557617 0.9985352 0.4619141 0.8388672 0.3554688 0.8388672 0.3554688 0.8388672 0.6557617 0.6640625 0.4609375 0.6845703 0.625 0.9775391 0.6257324 0.8388672 0.6557617 0.9985352 0.4619141 0.8388672 0.3554688 0.8388672 0.3554688 0.8388672 0.6557617 0.6640625 0.4609375 0.6845703 0.625 0.9775391 0.6257324 0.8388672 0.6557617 0.9985352 0.4619141 0.8388672 0.3554688 0.1706543 0.01269531 0.1706543 0.3076172 -0.0004963875 0.1181641 0.02142334 0.2768555 0.3151855 0.277832 0.3371582 0.1191406 0.1706543 0.01269531 0.1706543 0.3076172 -0.0004963875 0.1181641 0.02142334 0.2768555 0.3151855 0.277832 0.3371582 0.1191406 0.1706543 0.01269531 0.1706543 0.3076172 -0.0004963875 0.1181641 0.02142334 0.2768555 0.3151855 0.277832 0.3371582 0.1191406 0.503418 0.008789063 0.503418 0.3076172 0.3322754 0.1157227 0.3544922 0.2763672 0.6489258 0.2773438 0.6713867 0.1166992 0.503418 0.008789063 0.503418 0.3076172 0.3322754 0.1157227 0.3544922 0.2763672 0.6489258 0.2773438 0.6713867 0.1166992 0.503418 0.008789063 0.503418 0.3076172 0.3322754 0.1157227 0.3544922 0.2763672 0.6489258 0.2773438 0.6713867 0.1166992 0.8388672 0.009277344 0.8388672 0.3095703 0.6650391 0.1147461 0.6860352 0.2788086 0.980957 0.2797852 0.8388672 0.3095703 1.000977 0.1157227 0.8388672 0.009277344 0.8388672 0.009277344 0.8388672 0.3095703 0.6650391 0.1147461 0.6860352 0.2788086 0.980957 0.2797852 0.8388672 0.3095703 1.000977 0.1157227 0.8388672 0.009277344</float_array>
          <technique_common>
            <accessor source="#L01_01__mTreeOakLeaf-texcoord-array" count="156" stride="2">
              <param name="S" type="float" />
              <param name="T" type="float" />
            </accessor>
          </technique_common>
        </source>
        <source id="L01_01__mTreeOakLeaf-texcoord_1">
          <float_array id="L01_01__mTreeOakLeaf-texcoord-array_1" count="312">0.02389563 0.001998961 0.02389563 0.07612723 0.001968414 0.02673382 0.003295949 0.07098496 0.04451057 0.07098496 0.0458381 0.02673382 0.02389563 0.001998961 0.02389563 0.07612723 0.001968414 0.02673382 0.003295949 0.07098496 0.04451057 0.07098496 0.0458381 0.02673382 0.02389563 0.001998961 0.02389563 0.07612723 0.001968414 0.02673382 0.003295949 0.07098496 0.04451057 0.07098496 0.0458381 0.02673382 0.02389563 0.001998961 0.02389563 0.07612723 0.001968414 0.02673382 0.003295949 0.07098496 0.04451057 0.07098496 0.0458381 0.02673382 0.02389563 0.001998961 0.02389563 0.07612723 0.001968414 0.02673382 0.003295949 0.07098496 0.04451057 0.07098496 0.0458381 0.02673382 0.02389563 0.001998961 0.02389563 0.07612723 0.001968414 0.02673382 0.003295949 0.07098496 0.04451057 0.07098496 0.0458381 0.02673382 0.02389563 0.001998961 0.02389563 0.07612723 0.001968414 0.02673382 0.003295949 0.07098496 0.04451057 0.07098496 0.0458381 0.02673382 0.02389563 0.001998961 0.02389563 0.07612723 0.001968414 0.02673382 0.003295949 0.07098496 0.04451057 0.07098496 0.0458381 0.02673382 0.02389563 0.001998961 0.02389563 0.07612723 0.001968414 0.02673382 0.003295949 0.07098496 0.04451057 0.07098496 0.0458381 0.02673382 0.02389563 0.001998961 0.02389563 0.07612723 0.001968414 0.02673382 0.003295949 0.07098496 0.04451057 0.07098496 0.0458381 0.02673382 0.02389563 0.001998961 0.02389563 0.07612723 0.001968414 0.02673382 0.003295949 0.07098496 0.04451057 0.07098496 0.0458381 0.02673382 0.02389563 0.001998961 0.02389563 0.07612723 0.001968414 0.02673382 0.003295949 0.07098496 0.04451057 0.07098496 0.0458381 0.02673382 0.02389563 0.001998961 0.02389563 0.07612723 0.001968414 0.02673382 0.003295949 0.07098496 0.04451057 0.07098496 0.02389563 0.07612723 0.0458381 0.02673382 0.02389563 0.001998961 0.02389563 0.001998961 0.02389563 0.07612723 0.001968414 0.02673382 0.003295949 0.07098496 0.04451057 0.07098496 0.02389563 0.07612723 0.0458381 0.02673382 0.02389563 0.001998961 0.02389563 0.001998961 0.02389563 0.07612723 0.001968414 0.02673382 0.003295949 0.07098496 0.04451057 0.07098496 0.02389563 0.07612723 0.0458381 0.02673382 0.02389563 0.001998961 0.02389563 0.001998961 0.02389563 0.07612723 0.001968414 0.02673382 0.003295949 0.07098496 0.04451057 0.07098496 0.02389563 0.07612723 0.0458381 0.02673382 0.02389563 0.001998961 0.02389563 0.001998961 0.02389563 0.07612723 0.001968414 0.02673382 0.003295949 0.07098496 0.04451057 0.07098496 0.0458381 0.02673382 0.02389563 0.001998961 0.02389563 0.07612723 0.001968414 0.02673382 0.003295949 0.07098496 0.04451057 0.07098496 0.0458381 0.02673382 0.02389563 0.001998961 0.02389563 0.07612723 0.001968414 0.02673382 0.003295949 0.07098496 0.04451057 0.07098496 0.0458381 0.02673382 0.02389563 0.001998961 0.02389563 0.07612723 0.001968414 0.02673382 0.003295949 0.07098496 0.04451057 0.07098496 0.0458381 0.02673382 0.02389563 0.001998961 0.02389563 0.07612723 0.001968414 0.02673382 0.003295949 0.07098496 0.04451057 0.07098496 0.0458381 0.02673382 0.02389563 0.001998961 0.02389563 0.07612723 0.001968414 0.02673382 0.003295949 0.07098496 0.04451057 0.07098496 0.0458381 0.02673382 0.02389563 0.001998961 0.02389563 0.07612723 0.001968414 0.02673382 0.003295949 0.07098496 0.04451057 0.07098496 0.02389563 0.07612723 0.0458381 0.02673382 0.02389563 0.001998961 0.02389563 0.001998961 0.02389563 0.07612723 0.001968414 0.02673382 0.003295949 0.07098496 0.04451057 0.07098496 0.02389563 0.07612723 0.0458381 0.02673382 0.02389563 0.001998961</float_array>
          <technique_common>
            <accessor source="#L01_01__mTreeOakLeaf-texcoord-array_1" count="156" stride="2">
              <param name="S" type="float" />
              <param name="T" type="float" />
            </accessor>
          </technique_common>
        </source>
        <vertices id="L01_01__mTreeOakLeaf-vertex">
          <input semantic="POSITION" source="#L01_01__mTreeOakLeaf-position" />
        </vertices>
        <triangles material="mTreeOakLeaf" count="96">
          <input semantic="VERTEX" source="#L01_01__mTreeOakLeaf-vertex" offset="0" />
          <input semantic="NORMAL" source="#L01_01__mTreeOakLeaf-normal" offset="1" />
          <input semantic="COLOR" source="#L01_01__mTreeOakLeaf-color" offset="2" set="0" />
          <input semantic="TEXCOORD" source="#L01_01__mTreeOakLeaf-texcoord" offset="3" set="0" />
          <input semantic="TEXCOORD" source="#L01_01__mTreeOakLeaf-texcoord_1" offset="4" set="1" />
          <p>0 0 0 0 0 1 1 1 1 1 2 2 2 2 2 1 1 1 1 1 3 3 3 3 3 2 2 2 2 2 4 4 4 4 4 1 1 1 1 1 5 5 5 5 5 1 1 1 1 1 0 0 0 0 0 5 5 5 5 5 6 6 6 6 6 7 7 7 7 7 8 8 8 8 8 7 7 7 7 7 9 9 9 9 9 8 8 8 8 8 10 10 10 10 10 7 7 7 7 7 11 11 11 11 11 7 7 7 7 7 6 6 6 6 6 11 11 11 11 11 12 12 12 12 12 13 13 13 13 13 14 14 14 14 14 13 13 13 13 13 15 15 15 15 15 14 14 14 14 14 16 16 16 16 16 13 13 13 13 13 17 17 17 17 17 13 13 13 13 13 12 12 12 12 12 17 17 17 17 17 18 18 18 18 18 19 19 19 19 19 20 20 20 20 20 19 19 19 19 19 21 21 21 21 21 20 20 20 20 20 22 22 22 22 22 19 19 19 19 19 23 23 23 23 23 19 19 19 19 19 18 18 18 18 18 23 23 23 23 23 24 24 24 24 24 25 25 25 25 25 26 26 26 26 26 25 25 25 25 25 27 27 27 27 27 26 26 26 26 26 28 28 28 28 28 25 25 25 25 25 29 29 29 29 29 25 25 25 25 25 24 24 24 24 24 29 29 29 29 29 30 30 30 30 30 31 31 31 31 31 32 32 32 32 32 31 31 31 31 31 33 33 33 33 33 32 32 32 32 32 34 34 34 34 34 31 31 31 31 31 35 35 35 35 35 31 31 31 31 31 30 30 30 30 30 35 35 35 35 35 36 36 36 36 36 37 37 37 37 37 38 38 38 38 38 37 37 37 37 37 39 39 39 39 39 38 38 38 38 38 40 40 40 40 40 37 37 37 37 37 41 41 41 41 41 37 37 37 37 37 36 36 36 36 36 41 41 41 41 41 42 42 42 42 42 43 43 43 43 43 44 44 44 44 44 43 43 43 43 43 45 45 45 45 45 44 44 44 44 44 46 46 46 46 46 43 43 43 43 43 47 47 47 47 47 43 43 43 43 43 42 42 42 42 42 47 47 47 47 47 48 48 48 48 48 49 49 49 49 49 50 50 50 50 50 49 49 49 49 49 51 51 51 51 51 50 50 50 50 50 52 52 52 52 52 49 49 49 49 49 53 53 53 53 53 49 49 49 49 49 48 48 48 48 48 53 53 53 53 53 54 54 54 54 54 55 55 55 55 55 56 56 56 56 56 55 55 55 55 55 57 57 57 57 57 56 56 56 56 56 58 58 58 58 58 55 55 55 55 55 59 59 59 59 59 55 55 55 55 55 54 54 54 54 54 59 59 59 59 59 60 60 60 60 60 61 61 61 61 61 62 62 62 62 62 61 61 61 61 61 63 63 63 63 63 62 62 62 62 62 64 64 64 64 64 61 61 61 61 61 65 65 65 65 65 61 61 61 61 61 60 60 60 60 60 65 65 65 65 65 66 66 66 66 66 67 67 67 67 67 68 68 68 68 68 67 67 67 67 67 69 69 69 69 69 68 68 68 68 68 70 70 70 70 70 67 67 67 67 67 71 71 71 71 71 67 67 67 67 67 66 66 66 66 66 71 71 71 71 71 72 72 72 72 72 73 73 73 73 73 74 74 74 74 74 73 73 73 73 73 75 75 75 75 75 74 74 74 74 74 76 76 76 76 76 77 77 77 77 77 78 78 78 78 78 77 77 77 77 77 79 79 79 79 79 78 78 78 78 78 80 80 80 80 80 81 81 81 81 81 82 82 82 82 82 81 81 81 81 81 83 83 83 83 83 82 82 82 82 82 84 84 84 84 84 85 85 85 85 85 86 86 86 86 86 85 85 85 85 85 87 87 87 87 87 86 86 86 86 86 88 88 88 88 88 89 89 89 89 89 90 90 90 90 90 89 89 89 89 89 91 91 91 91 91 90 90 90 90 90 92 92 92 92 92 93 93 93 93 93 94 94 94 94 94 93 93 93 93 93 95 95 95 95 95 94 94 94 94 94 96 96 96 96 96 97 97 97 97 97 98 98 98 98 98 97 97 97 97 97 99 99 99 99 99 98 98 98 98 98 100 100 100 100 100 101 101 101 101 101 102 102 102 102 102 101 101 101 101 101 103 103 103 103 103 102 102 102 102 102 104 104 104 104 104 105 105 105 105 105 106 106 106 106 106 105 105 105 105 105 107 107 107 107 107 106 106 106 106 106 108 108 108 108 108 105 105 105 105 105 109 109 109 109 109 105 105 105 105 105 104 104 104 104 104 109 109 109 109 109 110 110 110 110 110 111 111 111 111 111 112 112 112 112 112 111 111 111 111 111 113 113 113 113 113 112 112 112 112 112 114 114 114 114 114 111 111 111 111 111 115 115 115 115 115 111 111 111 111 111 110 110 110 110 110 115 115 115 115 115 116 116 116 116 116 117 117 117 117 117 118 118 118 118 118 117 117 117 117 117 119 119 119 119 119 118 118 118 118 118 120 120 120 120 120 117 117 117 117 117 121 121 121 121 121 117 117 117 117 117 116 116 116 116 116 121 121 121 121 121 122 122 122 122 122 123 123 123 123 123 124 124 124 124 124 123 123 123 123 123 125 125 125 125 125 124 124 124 124 124 126 126 126 126 126 123 123 123 123 123 127 127 127 127 127 123 123 123 123 123 122 122 122 122 122 127 127 127 127 127 128 128 128 128 128 129 129 129 129 129 130 130 130 130 130 129 129 129 129 129 131 131 131 131 131 130 130 130 130 130 132 132 132 132 132 129 129 129 129 129 133 133 133 133 133 129 129 129 129 129 128 128 128 128 128 133 133 133 133 133 134 134 134 134 134 135 135 135 135 135 136 136 136 136 136 135 135 135 135 135 137 137 137 137 137 136 136 136 136 136 138 138 138 138 138 135 135 135 135 135 139 139 139 139 139 135 135 135 135 135 134 134 134 134 134 139 139 139 139 139 140 140 140 140 140 141 141 141 141 141 142 142 142 142 142 141 141 141 141 141 143 143 143 143 143 142 142 142 142 142 144 144 144 144 144 145 145 145 145 145 146 146 146 146 146 145 145 145 145 145 147 147 147 147 147 146 146 146 146 146 148 148 148 148 148 149 149 149 149 149 150 150 150 150 150 149 149 149 149 149 151 151 151 151 151 150 150 150 150 150 152 152 152 152 152 153 153 153 153 153 154 154 154 154 154 153 153 153 153 153 155 155 155 155 155 154 154 154 154 154 </p>
        </triangles>
      </mesh>
    </geometry>
    <geometry id="LB01__mTreeOakLeafBack-mesh" name="LB01__mTreeOakLeafBack">
      <mesh>
        <source id="LB01__mTreeOakLeafBack-position">
          <float_array id="LB01__mTreeOakLeafBack-position-array" count="81">-1.212243 7.390042 0.905571 0.2935798 6.391715 1.303025 -1.042814 8.258112 0.3634553 0.8053951 9.562765 -0.6630857 3.447714 7.061073 0.4832034 1.618762 9.699445 -0.8529899 3.676764 8.607147 -0.4726682 -3.259027 6.991625 0.2323759 -2.524923 5.530706 1.175798 -2.560608 7.705856 -0.117764 -0.07042482 8.180063 -0.1373155 0.7466985 4.944506 1.86715 0.7506707 7.996698 0.05768728 1.924889 6.243928 1.220415 1.942109 10.25414 -2.502265 0.4754698 9.766474 -3.411644 1.786199 10.54538 -1.552455 0.009594548 10.83996 0.04648209 -2.570934 9.719501 -2.353995 -0.7763261 10.81516 0.280663 -2.778246 10.24473 -0.6701589 2.615542 6.07738 -1.038401 3.013671 9.298509 -3.44151 -0.1680878 10.33373 -4.092724 -1.826303 5.638614 -0.5505164 -3.278572 6.550039 -1.17322 -3.176796 10.06239 -3.781434</float_array>
          <technique_common>
            <accessor source="#LB01__mTreeOakLeafBack-position-array" count="27" stride="3">
              <param name="X" type="float" />
              <param name="Y" type="float" />
              <param name="Z" type="float" />
            </accessor>
          </technique_common>
        </source>
        <source id="LB01__mTreeOakLeafBack-normal">
          <float_array id="LB01__mTreeOakLeafBack-normal-array" count="81">0.1232877 0.5068493 0.853229 0.1232877 0.5068493 0.853229 0.1135029 0.5107632 0.853229 0.1232877 0.5068493 0.853229 0.1135029 0.5107632 0.853229 0.1232877 0.5068493 0.853229 0.1232877 0.5068493 0.853229 -0.08219178 0.5009785 0.8610567 -0.08219178 0.5009785 0.8610567 -0.09001957 0.5088063 0.8571429 -0.08219178 0.5009785 0.8610567 -0.09001957 0.5088063 0.8571429 -0.08219178 0.5009785 0.8610567 -0.08219178 0.5009785 0.8610567 -0.1330724 0.9412916 -0.3111546 -0.1330724 0.9412916 -0.3111546 -0.1213307 0.9432485 -0.3091977 -0.1330724 0.9412916 -0.3111546 -0.1213307 0.9432485 -0.3091977 -0.1330724 0.9412916 -0.3111546 -0.1330724 0.9412916 -0.3111546 0.02935421 0.5949119 0.8023483 0.037182 0.5890411 0.8082192 0.037182 0.5890411 0.8082192 0.037182 0.5890411 0.8082192 0.037182 0.5890411 0.8082192 0.02935421 0.5949119 0.8023483</float_array>
          <technique_common>
            <accessor source="#LB01__mTreeOakLeafBack-normal-array" count="27" stride="3">
              <param name="X" type="float" />
              <param name="Y" type="float" />
              <param name="Z" type="float" />
            </accessor>
          </technique_common>
        </source>
        <source id="LB01__mTreeOakLeafBack-color">
          <float_array id="LB01__mTreeOakLeafBack-color-array" count="108">1 1 1 0.0009994507 1 1 1 0.0009994507 1 1 1 0.0009994507 1 1 1 0.0009994507 1 1 1 0.0009994507 1 1 1 0.0009994507 1 1 1 0.0009994507 -0.5996094 8 -0.09997559 0.0009994507 -0.5996094 8 -0.09997559 0.4499512 -0.5996094 8 -0.09997559 0.0009994507 -0.5996094 8 -0.09997559 0.0009994507 -0.5996094 8 -0.09997559 0.4499512 -0.5996094 8 -0.09997559 0.0009994507 -0.5996094 8 -0.09997559 0.4499512 1 1 1 0.0009994507 1 1 1 0.0009994507 1 1 1 0.0009994507 1 1 1 0.0009994507 1 1 1 0.0009994507 1 1 1 0.0009994507 1 1 1 0.0009994507 -0.09997559 8 -2.298828 0.3999023 -0.09997559 8 -2.298828 0.0009994507 -0.09997559 8 -2.298828 0.0009994507 -0.09997559 8 -2.298828 0.3999023 -0.09997559 8 -2.298828 0.3999023 -0.09997559 8 -2.298828 0.0009994507</float_array>
          <technique_common>
            <accessor source="#LB01__mTreeOakLeafBack-color-array" count="27" stride="4">
              <param name="R" type="float" />
              <param name="G" type="float" />
              <param name="B" type="float" />
              <param name="A" type="float" />
            </accessor>
          </technique_common>
        </source>
        <source id="LB01__mTreeOakLeafBack-texcoord">
          <float_array id="LB01__mTreeOakLeafBack-texcoord-array" count="54">0.02700888 0.2784814 0.1331523 0.1031221 0.1309549 0.3592334 0.4987945 0.4033021 0.6133 0.01687676 0.61919 0.374279 0.7878353 0.1627247 0.02700888 0.2784814 0.1331523 0.1031221 0.1309549 0.3592334 0.4987945 0.4033021 0.6133 0.01687676 0.61919 0.374279 0.7878353 0.1627247 0.02700888 0.2784814 0.1331523 0.1031221 0.1309549 0.3592334 0.4987945 0.4033021 0.6133 0.01687676 0.61919 0.374279 0.7878353 0.1627247 0.9256569 0.4737999 0.9829707 0.8810694 0.4842982 1.002045 0.2323069 0.4051942 0.004028443 0.5157323 0.01458785 0.9588305</float_array>
          <technique_common>
            <accessor source="#LB01__mTreeOakLeafBack-texcoord-array" count="27" stride="2">
              <param name="S" type="float" />
              <param name="T" type="float" />
            </accessor>
          </technique_common>
        </source>
        <source id="LB01__mTreeOakLeafBack-texcoord_1">
          <float_array id="LB01__mTreeOakLeafBack-texcoord-array_1" count="54">-0.04376221 0.04638672 -0.02838135 0.001953125 -0.02890015 0.06640625 0.02389526 0.07617188 0.04089355 -0.02050781 0.0413208 0.06933594 0.065979 0.015625 -0.04376221 0.04638672 -0.02838135 0.001953125 -0.02890015 0.06640625 0.02389526 0.07617188 0.04089355 -0.02050781 0.0413208 0.06933594 0.065979 0.015625 -0.04376221 0.04638672 -0.02838135 0.001953125 -0.02890015 0.06640625 0.02389526 0.07617188 0.04089355 -0.02050781 0.0413208 0.06933594 0.065979 0.015625 0.08508301 -0.05859375 0.09307861 0.04541016 0.02389526 0.07617188 -0.01072693 -0.07519531 -0.04229736 -0.04589844 -0.04089355 0.06884766</float_array>
          <technique_common>
            <accessor source="#LB01__mTreeOakLeafBack-texcoord-array_1" count="27" stride="2">
              <param name="S" type="float" />
              <param name="T" type="float" />
            </accessor>
          </technique_common>
        </source>
        <vertices id="LB01__mTreeOakLeafBack-vertex">
          <input semantic="POSITION" source="#LB01__mTreeOakLeafBack-position" />
        </vertices>
        <triangles material="mTreeOakLeafBack" count="19">
          <input semantic="VERTEX" source="#LB01__mTreeOakLeafBack-vertex" offset="0" />
          <input semantic="NORMAL" source="#LB01__mTreeOakLeafBack-normal" offset="1" />
          <input semantic="COLOR" source="#LB01__mTreeOakLeafBack-color" offset="2" set="0" />
          <input semantic="TEXCOORD" source="#LB01__mTreeOakLeafBack-texcoord" offset="3" set="0" />
          <input semantic="TEXCOORD" source="#LB01__mTreeOakLeafBack-texcoord_1" offset="4" set="1" />
          <p>0 0 0 0 0 1 1 1 1 1 2 2 2 2 2 1 1 1 1 1 3 3 3 3 3 2 2 2 2 2 3 3 3 3 3 1 1 1 1 1 4 4 4 4 4 5 5 5 5 5 3 3 3 3 3 4 4 4 4 4 5 5 5 5 5 4 4 4 4 4 6 6 6 6 6 7 7 7 7 7 8 8 8 8 8 9 9 9 9 9 8 8 8 8 8 10 10 10 10 10 9 9 9 9 9 10 10 10 10 10 8 8 8 8 8 11 11 11 11 11 12 12 12 12 12 10 10 10 10 10 11 11 11 11 11 12 12 12 12 12 11 11 11 11 11 13 13 13 13 13 14 14 14 14 14 15 15 15 15 15 16 16 16 16 16 15 15 15 15 15 17 17 17 17 17 16 16 16 16 16 17 17 17 17 17 15 15 15 15 15 18 18 18 18 18 19 19 19 19 19 17 17 17 17 17 18 18 18 18 18 19 19 19 19 19 18 18 18 18 18 20 20 20 20 20 21 21 21 21 21 22 22 22 22 22 23 23 23 23 23 21 21 21 21 21 23 23 23 23 23 24 24 24 24 24 24 24 24 24 24 23 23 23 23 23 25 25 25 25 25 25 25 25 25 25 23 23 23 23 23 26 26 26 26 26 </p>
        </triangles>
      </mesh>
    </geometry>
    <geometry id="TrunkBottomTop__mPltTreeOakTrunk-mesh" name="TrunkBottomTop__mPltTreeOakTrunk">
      <mesh>
        <source id="TrunkBottomTop__mPltTreeOakTrunk-position">
          <float_array id="TrunkBottomTop__mPltTreeOakTrunk-position-array" count="828">-0.286199 4 -0.4301526 -0.469311 3.68 -0.7964634 -0.5959002 4 -0.69969 -0.286199 4 -0.4301526 -0.3895002 4 -0.82639 -0.469311 3.68 -0.7964634 -0.3214502 4 -0.86846 -0.3895002 4 -0.82639 -0.286199 4 -0.4301526 -1.289171 -0.3736965 1.320519 -1.185993 -0.3978821 1.637677 -1.197709 -0.007563276 1.373613 -1.126694 -0.0009851328 1.552748 -0.8524737 -0.3736965 1.637798 -0.9344339 -0.007563265 1.564893 -1.126694 -0.0009851328 1.552748 -0.7394463 -0.00203442 1.512458 -0.6338449 -0.343538 1.526282 -0.9060302 0.1285385 1.50995 -0.6437683 0.1453952 1.453473 -0.2042467 -0.2166507 1.289468 -1.033264 0.1838951 1.424153 -0.2549937 0.2072745 1.199763 0.03285792 -0.07863744 1.094221 -0.7178687 0.2846687 1.399802 -0.3949441 0.4363483 1.13094 -1.154179 0.1285385 1.329659 -1.197709 -0.007563276 1.373613 -0.9128831 0.3500287 1.258463 -1.209538 -0.001473061 1.171255 -1.289171 -0.3736965 1.320519 -1.250673 -0.3435381 1.07813 -1.106693 0.2846686 1.118107 -1.18777 0.1453951 1.059368 -1.158904 -0.2166507 0.5958684 -0.673299 0.5289131 0.9287037 -1.059085 0.2072744 0.6196685 -1.034958 -0.07863749 0.3438511 -0.950447 0.4363483 0.7273439 -0.9590172 0.2475841 0.4205256 -0.8853592 0.507806 0.6235608 -0.3176532 0.5078061 1.036023 -0.6373748 0.6255615 0.8792582 -0.06772394 0.2475841 1.043402 -0.4052751 0.9950173 0.8631961 -0.0008112561 0.5298929 1.063653 -0.7773942 0.9950173 0.5928357 7.832106E-05 0.8458238 0.9399791 0.03316564 0.2535371 1.059381 0.3279928 0.4143613 1.027333 0.1494367 0.2182504 1.064573 0.268418 0.1994215 1.172227 0.2157755 -0.1990434 1.252558 0.6029859 0.127549 1.424119 0.6114519 -0.3246682 1.478204 0.8217422 -0.3679682 1.57221 0.3960904 0.3624328 1.115968 0.8386358 0.09482314 1.474845 0.6885687 0.2224102 1.367109 1.005383 -0.003625592 1.511577 1.059079 -0.3736837 1.600077 1.12672 -0.3679682 1.369563 0.9408154 0.1507069 1.413052 1.03744 0.09482315 1.342746 1.079268 0.1275491 1.106669 1.12498 -0.3246682 1.136984 1.077966 -0.1990434 0.6845779 0.9986908 0.2224103 1.160353 0.843622 0.2684668 1.26369 0.6418097 0.4295816 0.9540975 0.8863001 0.3624328 0.7930357 0.9910301 0.1994215 0.6922116 1.030632 -0.0786374 0.3438509 0.6357523 0.505458 0.910479 0.8709034 0.4143613 0.6328848 0.9640958 0.2292814 0.4416959 0.4054318 0.9950173 0.863196 0.7775508 0.9950174 0.5928357 0.997815 0.5332512 0.3293175 -0.0008705831 1.44 0.8320714 0.9838841 0.2535371 0.3295115 1.011068 0.2475841 0.2286217 0.9954098 0.8528923 0.2568809 1.079499 0.5078061 0.02106772 1.217758 0.2072745 0.1263303 1.279039 -0.2166506 0.2128181 1.580315 0.1453953 -0.1537548 1.636748 -0.343538 -0.1233997 1.549248 0.2846687 -0.2489319 1.663692 -0.001472936 -0.2314787 1.819125 -0.3736964 -0.2699105 1.712013 0.1285386 -0.3921698 1.798616 -0.002279968 -0.48003 1.913314 -0.397882 -0.6141006 1.820905 -0.0009850039 -0.5888079 1.634803 -0.3736964 -0.8371935 1.669732 0.1838952 -0.5396888 1.483934 -0.002034323 -0.783831 1.401141 -0.343538 -0.8485247 1.617228 0.1285386 -0.6838861 1.371858 0.1453952 -0.7923486 0.9143921 -0.2166506 -0.9094489 1.400259 0.2846688 -0.7053732 0.9082054 0.2072745 -0.8156094 0.6361396 -0.07863726 -0.8702729 1.474952 0.3500288 -0.4764009 1.02917 0.6255615 -0.3315575 0.8626541 0.5078061 -0.6463108 0.6922821 0.2475841 -0.7792138 1.039222 0.9950173 -0.08599427 0.9601217 0.9950173 -0.4836566 0.9195129 1.44 0.2484866 0.9953452 1.44 -0.1132861 0.9195131 1.44 -0.4750582 0.7784998 4 0.13547 0.8426998 4 -0.15 0.5999998 4 0.385 0.7785998 4 -0.45128 0.7035604 1.44 0.5551826 0.3224998 4 0.549 0.3803647 1.44 0.7601105 -1.482253E-07 4 0.609 -0.3821059 1.44 0.7601104 -0.3225001 4 0.55 -0.7053015 1.44 0.5551825 -0.5939002 4 0.384 -0.9212539 1.44 0.2484864 -0.7785002 4 0.1352 -0.9952532 0.8528922 0.256881 -0.9970862 1.44 -0.1132863 -0.8400002 4 -0.15 -1.039065 0.9950172 -0.08599455 -0.9994375 0.5332511 0.3293176 -0.9212537 1.44 -0.475059 -0.7785002 4 -0.4525 -1.005391 0.253537 0.3295116 -1.046258 0.2292813 0.2205355 -1.076219 0.425099 0.005981286 -1.208275 0.1994214 0.02859345 -1.273526 -0.1990435 0.09601908 -1.546392 0.1419335 -0.2533811 -1.60149 -0.3201354 -0.240384 -1.739169 -0.3481537 -0.44342 -1.511748 0.2396433 -0.346901 -1.655508 0.09521615 -0.4837416 -1.724679 0.005616704 -0.5847664 -1.826947 -0.3706229 -0.6661835 -1.619911 0.1492049 -0.5935598 -1.729969 0.006819768 -0.6355274 -1.692931 0.005616705 -0.6701481 -1.615877 -0.3481537 -0.7749884 -1.575138 0.09521616 -0.6998791 -1.445091 0.2870829 -0.5268966 -1.341696 0.1419335 -0.806274 -1.380149 -0.3201354 -0.8356352 -0.9098502 -0.1990435 -0.8702696 -1.378497 0.2396433 -0.7069519 -0.9058155 0.1994215 -0.7844875 -0.6403971 -0.07865527 -0.8701783 -1.030793 0.5091299 -0.3315574 -0.8688458 0.4250991 -0.6322484 -0.9599648 0.9950172 -0.4836575 -0.7053012 1.44 -0.7817549 -0.5959002 4 -0.69969 -0.469311 3.68 -0.7964634 -0.3821054 1.44 -0.9866827 -0.7187923 0.2292813 -0.7873002 -0.3290353 3.68 -0.8829755 -0.3895002 4 -0.82639 -0.3214502 4 -0.86846 -2.153494E-07 4 -0.92662 -0.0008700124 1.44 -1.058643 -0.0008113118 0.5915506 -1.078784 -0.3588875 0.4863536 -1.017682 -0.5422115 0.247584 -0.897817 -0.4788162 0.2072745 -1.117745 -0.5653443 -0.2166506 -1.147012 -0.3395407 0.1453952 -1.471092 -0.0005486107 0.339619 -1.471092 -0.3883964 -0.3435382 -1.513598 -0.1238004 0.09510924 -1.748035 -0.0008113214 0.153222 -1.75341 -0.002163057 -0.397882 -1.98489 -0.00081132 -0.03469561 -1.882343 -0.0008700124 1.44 -1.058643 -2.153494E-07 4 -0.92662 0.3214498 4 -0.86815 0.3803653 1.44 -0.9866822 0.5958998 4 -0.70157 -0.0008113118 0.5915506 -1.078784 0.7035607 1.44 -0.7817543 0.5406479 0.247584 -0.8978173 0.357324 0.4863536 -1.017682 -0.0005486107 0.339619 -1.471092 0.4772527 0.2072745 -1.117745 0.5610181 -0.2166506 -1.147012 0.3384435 0.1453952 -1.471092 0.3840703 -0.3435381 -1.513598 0.1221777 0.09510925 -1.748035 -0.0008113214 0.153222 -1.75341 -0.002163057 -0.397882 -1.98489 -0.00081132 -0.03469561 -1.882343 0.001858945 5.804685 -0.9403335 0.00432696 7.264223 -1.053651 0.5769051 7.264223 -0.8444177 0.3214498 4 -0.86815 -2.153494E-07 4 -0.92662 0.5690489 5.804685 -0.7342474 0.5958998 4 -0.70157 0.8361208 7.272162 -0.4409489 0.7785998 4 -0.45128 0.8125707 5.804685 -0.2734962 0.8426998 4 -0.15 0.5769047 7.264223 0.06417523 0.7784998 4 0.13547 0.5690486 5.804685 0.2238527 0.5999998 4 0.385 0.00432647 7.264223 0.2734084 0.3224998 4 0.549 0.001858473 5.804685 0.4299387 -1.482253E-07 4 0.609 -0.3225001 4 0.55 -0.566589 5.804685 0.2238526 -0.5939002 4 0.384 -0.5714984 7.264223 0.06417509 -0.7785002 4 0.1352 -0.8076043 5.804685 -0.2736759 -0.8400002 4 -0.15 -0.8243609 7.264223 -0.4409396 -0.7785002 4 -0.4525 -0.7606253 7.264223 -0.7143346 -0.5714982 7.264223 -0.844418 -0.5665888 5.804685 -0.7342479 -0.5959002 4 -0.69969 -0.3214502 4 -0.86846 0.001858945 5.804685 -0.9403335 0.00432696 7.264223 -1.053651 -2.153494E-07 4 -0.92662 0.3224998 4 0.549 -1.580413E-07 4 0.3844374 -1.482253E-07 4 0.609 -0.3225001 4 0.55 0.5999998 4 0.385 -0.5939002 4 0.384 -1.814023E-07 4 -0.15 0.7784998 4 0.13547 -0.7785002 4 0.1352 0.8426998 4 -0.15 -0.8400002 4 -0.15 0.7785998 4 -0.45128 -0.7785002 4 -0.4525 0.5958998 4 -0.70157 -0.5959002 4 -0.69969 0.3214498 4 -0.86815 -0.286199 4 -0.4301526 -2.153494E-07 4 -0.92662 -0.3214502 4 -0.86846 -0.3895002 4 -0.82639 -0.286199 4 -0.4301526 -0.5959002 4 -0.69969 -0.3214502 4 -0.86846 -1.814023E-07 4 -0.15 -0.7785002 4 -0.4525 -2.153494E-07 4 -0.92662 -0.8400002 4 -0.15 0.3214498 4 -0.86815 -0.7785002 4 0.1352 0.5958998 4 -0.70157 -0.5939002 4 0.384 0.7785998 4 -0.45128 -0.3225001 4 0.55 0.8426998 4 -0.15 -1.482253E-07 4 0.609 0.7784998 4 0.13547 0.3224998 4 0.549 0.5999998 4 0.385</float_array>
          <technique_common>
            <accessor source="#TrunkBottomTop__mPltTreeOakTrunk-position-array" count="276" stride="3">
              <param name="X" type="float" />
              <param name="Y" type="float" />
              <param name="Z" type="float" />
            </accessor>
          </technique_common>
        </source>
        <source id="TrunkBottomTop__mPltTreeOakTrunk-normal">
          <float_array id="TrunkBottomTop__mPltTreeOakTrunk-normal-array" count="828">0.5909981 0.4383562 -0.6771037 0.5909981 0.4383562 -0.6771037 0.5909981 0.4383562 -0.6771037 -0.9354208 0.2563601 0.2446184 -0.9354208 0.2563601 0.2446184 -0.9354208 0.2563601 0.2446184 0 1 0 0 1 0 0 1 0 -0.9589041 0.1937378 0.2093934 -0.5694716 0.2387476 0.7866927 -0.9178082 0.2759295 0.2876712 -0.5596869 0.3131115 0.7671233 0.09784736 0.2015656 0.9745597 0.01174168 0.2798434 0.960861 -0.5596869 0.3131115 0.7671233 0.3013699 0.2054795 0.9315069 0.4637965 0.1819961 0.8669276 -0.09197652 0.6007828 0.7945206 0.4383562 0.2837573 0.853229 0.483366 0.1937378 0.853229 -0.4168297 0.704501 0.5753425 0.479452 0.3150685 0.8199608 0.08414873 0.2818004 0.9549902 0.1135029 0.7495108 0.6536204 0.1996086 0.7103718 0.6751468 -0.7573385 0.5733855 0.3111546 -0.9178082 0.2759295 0.2876712 -0.2759295 0.8825831 0.3796478 -0.9706458 0.2367906 0.0332681 -0.9589041 0.1937378 0.2093934 -0.9686888 0.1682975 -0.1800391 -0.6731898 0.7338552 0.09589041 -0.9471624 0.2857143 -0.1409002 -0.9589041 0.1819961 -0.2133072 -0.2876712 0.8727984 0.3953033 -0.9236791 0.3091977 -0.223092 -0.9530333 0.260274 0.1604697 -0.6986302 0.7162427 0.01174168 -0.9765166 0.2054795 0.0704501 -0.8610567 0.2994129 0.4129159 -0.03522505 0.3855186 0.9217221 -0.6125244 0.3835616 0.6908023 0.2054795 0.1878669 0.960861 -0.3131115 0.2465753 0.9178082 0.07827789 0.2426614 0.9667319 -0.7455969 0.1976517 0.6360078 0.05675147 0.2622309 0.962818 -0.01369863 0.02348337 1 0.1369863 0.3052838 0.9432485 -0.1722113 0.2152642 0.960861 -0.4951076 0.3287671 0.8043053 -0.5146771 0.1702544 0.8395303 -0.4383562 0.2837573 0.853229 -0.4755382 0.1428571 0.8688846 -0.1761252 0.1878669 0.9667319 -0.1682975 0.7671233 0.6203523 -0.07436399 0.3776908 0.9236791 -0.09393346 0.7945206 0.6007828 0.5322896 0.2818004 0.7984344 0.5303327 0.2641879 0.8062623 0.960861 0.1780822 0.2152642 0.3581213 0.7612525 0.5401174 0.8845401 0.369863 0.2857143 0.960861 0.2739726 -0.05675147 0.9882583 0.1350294 -0.08023483 0.9804305 0.1624266 -0.1076321 0.592955 0.7906067 0.1526419 0.2504892 0.8923679 0.3776908 0.2641879 0.8767123 0.4011742 0.6614481 0.7377691 0.1409002 0.9491194 0.3072407 -0.07632094 0.8649706 0.2681018 0.4246575 0.4011742 0.3463796 0.8473581 0.8727984 0.2720157 0.4050881 0.9706458 0.1741683 0.1663405 0.3052838 0.2426614 0.9197652 0.7358121 0.1898239 0.6516634 0.9452055 0.037182 0.3248532 0 0.109589 0.9941292 0.9569471 0.02152642 0.2876712 0.7534246 0.3111546 0.5792564 0.9432485 0.1272016 0.3052838 0.8297456 0.4579256 0.3170255 0.6027398 0.37182 0.7064579 0.6516634 0.1878669 0.7358121 0.6497065 0.3189824 0.6888454 0.6634051 0.1780822 0.7260274 0.5988258 0.704501 0.3816047 0.8630137 0.2191781 0.4559687 0.8767123 0.2367906 0.4168297 0.7827789 0.5968689 0.1780822 0.9099804 0.2544031 0.3268102 0.8649706 0.3072407 -0.3953033 0.6634051 0.3013699 -0.6849315 0.4892368 0.2465753 -0.8356164 0.6438356 0.7358121 -0.2093934 0.4461839 0.223092 -0.8669276 0.1135029 0.1643836 -0.9804305 0.5440313 0.5459883 -0.6379648 0.1252446 0.3091977 -0.9432485 0.09784736 0.1722113 -0.9804305 0.2622309 0.702544 -0.6634051 0.07827789 0.3600783 -0.9295499 0.5420744 0.2563601 -0.8003914 0.4892368 0.8571429 -0.1585127 0.778865 0.3052838 -0.5479452 0.6203523 0.1643836 -0.7671233 0.6203523 0.07827789 -0.7808219 0.9941292 0.1017613 0.01174168 0.7455969 0.02739726 -0.6653621 0.9119374 0.08023483 0.4011742 0.9980431 0.06849315 0 0.8688846 0.04696673 -0.4931507 0.9080235 0.06066536 0.4148728 0.9921722 0.04305284 -0.109589 0.6731898 0.07632094 0.7358121 0.9080235 0.03522505 -0.4148728 0.6829746 0.09393346 0.7240704 0.3483366 0.09197652 0.9334638 0.3561644 0.1056751 0.9295499 0.001956947 0.09197652 0.9960861 -0.3581213 0.1056751 0.9275929 -0.3522505 0.09197652 0.9315069 -0.6829746 0.09393346 0.7240704 -0.6731898 0.07632094 0.7358121 -0.9119374 0.08219178 0.4031311 -0.9060665 0.06066536 0.4168297 -0.9158513 0.1409002 0.3776908 -0.9980431 0.06849315 0 -0.9921722 0.04305284 -0.109589 -0.9960861 0.09784736 0.005870841 -0.9510763 0.05283757 0.3033268 -0.9099804 0.05479452 -0.4109589 -0.9099804 0.037182 -0.4129159 -0.9432485 0.04305284 0.3287671 -0.851272 0.2641879 0.4540117 -0.8375734 0.4677104 0.2818004 -0.6927593 0.3502935 0.630137 -0.7064579 0.1761252 0.6849315 -0.7221135 0.295499 0.6242661 -0.7358121 0.148728 0.6594912 -0.8864971 0.1604697 0.4324853 -0.6066536 0.7416829 0.2857143 -0.8630137 0.4305284 0.2641879 -0.9060665 0.3111546 0.2837573 -0.9178082 0.2191781 -0.332681 -0.630137 0.7416829 -0.2328767 -0.8277887 0.4677104 -0.3111546 -0.4931507 0.3013699 -0.816047 -0.3835616 0.1389433 -0.9138943 -0.483366 0.4227006 -0.7671233 -0.4344423 0.8864971 -0.1604697 -0.109589 0.3111546 -0.9432485 -0.1037182 0.1193738 -0.9882583 -0.04892368 0.146771 -0.9882583 -0.2407045 0.7749511 -0.5831702 -0.06849315 0.3992172 -0.9138943 -0.739726 0.2426614 -0.62818 -0.8101761 0.4540117 -0.369863 -0.6242661 0.2152642 -0.7514677 -0.8845401 0.04892368 -0.4637965 -0.704501 0.04109589 -0.7084149 -0.7240704 0.02544031 -0.6888454 -0.5303327 0.05088063 -0.8454012 -0.3972603 0.03913894 -0.9178082 -0.4951076 0.1232877 -0.8610567 -0.2446184 0.05088063 -0.9686888 -0.3600783 0.02935421 -0.9334638 -0.3600783 0.02935421 -0.9334638 0.02935421 0.02152642 -1 0.04305284 0.04305284 -0.9980431 0 0.334638 -0.9432485 -0.4637965 0.2876712 -0.8375734 -0.6614481 0.08610567 -0.7455969 -0.7318982 0.4853229 -0.479452 -0.8943248 0.1819961 -0.4090019 -0.7084149 0.4305284 -0.5596869 0 0.816047 -0.5792564 -0.81409 0.1389433 -0.5616438 -0.702544 0.3131115 -0.6379648 0 0.8180039 -0.5753425 -0.001956947 0.1917808 -0.9823875 0 0.3131115 -0.9491194 0.04305284 0.04305284 -0.9980431 0.02935421 0.02152642 -1 0.3561644 0.01956947 -0.9354208 0.4266145 0.03913894 -0.9041096 0.6790606 0.02348337 -0.7338552 0 0.334638 -0.9432485 0.6829746 0.03522505 -0.7299413 0.6986302 0.04109589 -0.7142857 0.4403131 0.3561644 -0.8238748 0 0.816047 -0.5792564 0.7064579 0.5107632 -0.4911937 0.8923679 0.1682975 -0.4168297 0.7103718 0.4285714 -0.5596869 0.816047 0.1350294 -0.5616438 0.704501 0.3091977 -0.6399217 0 0.8180039 -0.5753425 -0.001956947 0.1917808 -0.9823875 0 0.3131115 -0.9491194 0 -0.04109589 -1 0 -0.07632094 -0.9960861 0.6086106 -0.0704501 -0.7906067 0.3561644 0.01956947 -0.9354208 0.02935421 0.02152642 -1 0.6712329 -0.03131115 -0.7416829 0.6790606 0.02348337 -0.7338552 1 -0.009784736 -0.0332681 0.9080235 0.03522505 -0.4148728 1 0.01956947 -0.01761252 0.9921722 0.04305284 -0.109589 0.6653621 0.07632094 0.7416829 0.9080235 0.06066536 0.4148728 0.6477495 0.09001957 0.7573385 0.6731898 0.07632094 0.7358121 0 0.1076321 0.9941292 0.3483366 0.09197652 0.9334638 0 0.1154599 0.9941292 0.001956947 0.09197652 0.9960861 -0.3522505 0.09197652 0.9315069 -0.6477495 0.09197652 0.7573385 -0.6731898 0.07632094 0.7358121 -0.6653621 0.07827789 0.7416829 -0.9060665 0.06066536 0.4168297 -1 0.01369863 -0.01761252 -0.9921722 0.04305284 -0.109589 -1 -0.02348337 -0.037182 -0.9099804 0.037182 -0.4129159 -0.8649706 -0.08414873 -0.4951076 -0.6086106 -0.08219178 -0.7906067 -0.6712329 -0.03913894 -0.739726 -0.7240704 0.02544031 -0.6888454 -0.3600783 0.02935421 -0.9334638 0 -0.04109589 -1 0 -0.07632094 -0.9960861 0.02935421 0.02152642 -1 0 1 0 0 1 0 0 1 0 0 1 0 0 1 0 0 1 0 0 1 0 0 1 0 0 1 0 0 1 0 0 1 0 0 1 0 0 1 0 0 1 0 0 1 0 0 1 0 0 1 0 0 1 0 0 1 0 0 -1 0 0 -1 0 0 -1 0 0 -1 0 0 -1 0 0 -1 0 0 -1 0 0 -1 0 0 -1 0 0 -1 0 0 -1 0 0 -1 0 0 -1 0 0 -1 0 0 -1 0 0 -1 0 0 -1 0 0 -1 0 0 -1 0</float_array>
          <technique_common>
            <accessor source="#TrunkBottomTop__mPltTreeOakTrunk-normal-array" count="276" stride="3">
              <param name="X" type="float" />
              <param name="Y" type="float" />
              <param name="Z" type="float" />
            </accessor>
          </technique_common>
        </source>
        <source id="TrunkBottomTop__mPltTreeOakTrunk-texcoord">
          <float_array id="TrunkBottomTop__mPltTreeOakTrunk-texcoord-array" count="552">0.8185064 0.9122593 0.7961974 0.9482712 0.7825862 0.938261 0.8185064 0.9122593 0.8065432 0.9491256 0.7961974 0.9482712 0.8151494 0.9580675 0.8065432 0.9491256 0.8185064 0.9122593 0.511063 0.6754662 0.5337382 0.6657918 0.5206763 0.6736961 0.5337382 0.6740318 0.5566881 0.6723533 0.5467696 0.6738182 0.5337382 0.6740318 0.5533921 0.6789453 0.5609912 0.6777856 0.5421613 0.6790063 0.5518357 0.6844386 0.5652638 0.6911832 0.5337382 0.6798303 0.559038 0.6985077 0.5671865 0.6946929 0.5446944 0.6864834 0.5495773 0.7061373 0.5260475 0.6791284 0.5206763 0.6736961 0.5337382 0.6876736 0.5142369 0.6791589 0.511063 0.6754662 0.506943 0.6794641 0.5230873 0.686636 0.5161901 0.6848353 0.5009613 0.6940215 0.5337382 0.7075716 0.5087435 0.700705 0.5009308 0.6990875 0.5186011 0.7061373 0.5064546 0.7048555 0.5164647 0.7130345 0.5513474 0.7134618 0.5337382 0.7152318 0.5624256 0.7013153 0.5462203 0.7356181 0.5660268 0.7140721 0.5222632 0.7356181 0.567217 0.7267067 0.5669423 0.7023225 0.5823542 0.7108066 0.5712454 0.7014374 0.5764031 0.6984771 0.5687124 0.6912137 0.5833308 0.6844691 0.5750297 0.6816919 0.5781426 0.6785486 0.584521 0.7036347 0.591937 0.6793115 0.5890073 0.685873 0.5996277 0.6742454 0.5996277 0.6660054 0.6192511 0.6756188 0.5996277 0.6800439 0.6080508 0.67922 0.6177557 0.6836756 0.6234931 0.6809595 0.630726 0.6893826 0.6105838 0.6857204 0.5996277 0.6869106 0.5996277 0.7050386 0.6154668 0.7036347 0.624958 0.6999115 0.6330149 0.6986297 0.5996277 0.7133091 0.6172674 0.7112033 0.6281625 0.7073885 0.5881832 0.7356181 0.6121402 0.7356181 0.6324961 0.7157201 0.5665761 0.7606739 0.6327708 0.709067 0.6383252 0.7083346 0.6342052 0.7286599 0.6482742 0.712302 0.640553 0.6995758 0.6360668 0.692587 0.6488845 0.6861477 0.6437269 0.6789453 0.6548967 0.6879482 0.6481521 0.681051 0.6460769 0.6766869 0.6578265 0.6813868 0.6608783 0.6752526 0.6655172 0.6680807 0.6655172 0.6763207 0.6867275 0.6766564 0.6655172 0.6821192 0.6852016 0.6812037 0.6922208 0.6823939 0.6739708 0.6812952 0.6836451 0.6857814 0.6962798 0.6932279 0.6765038 0.6877956 0.6908475 0.699057 0.6986603 0.6983856 0.6655172 0.6890164 0.6655172 0.7144994 0.6831568 0.7127293 0.6942045 0.7060457 0.6558733 0.7342448 0.6732078 0.7342448 0.6294748 0.7606739 0.6498306 0.7606739 0.6704001 0.7606739 0.6276742 0.8764306 0.64803 0.8764306 0.6073183 0.8764306 0.6683859 0.8764306 0.6081118 0.7606739 0.586932 0.8764306 0.586932 0.7606739 0.5665761 0.8764306 0.5462203 0.7606739 0.5462203 0.8764306 0.5258644 0.7606739 0.5258644 0.8764306 0.5047456 0.7606739 0.5047456 0.8764306 0.502884 0.7273781 0.4851528 0.7606739 0.4851528 0.8764306 0.4838099 0.7342448 0.5007172 0.7154454 0.4647664 0.7606739 0.4647664 0.8764306 0.5010224 0.7065035 0.4965056 0.7072054 0.4854579 0.7123935 0.4931486 0.6999115 0.4972991 0.6928617 0.4859462 0.6857814 0.4925382 0.6831874 0.4890286 0.6779992 0.4787744 0.6877956 0.4762414 0.6812952 0.4727012 0.6754967 0.4678182 0.6680807 0.4678182 0.6821192 0.4678182 0.6763207 0.4631794 0.6752526 0.4473708 0.6771141 0.4601276 0.6813868 0.4678182 0.6890164 0.4503006 0.6861477 0.4434034 0.6811426 0.4370556 0.6946013 0.4571978 0.6879482 0.4428541 0.6995758 0.4351634 0.6985992 0.4678182 0.7144688 0.4505447 0.7119663 0.4643086 0.7342448 0.4444105 0.7606739 0.4444105 0.8764306 0.4388256 0.8619342 0.4337901 0.7606739 0.4399548 0.7067171 0.4332408 0.8619342 0.4359874 0.8764001 0.4331797 0.8764001 0.4242073 0.8764306 0.4262215 0.7606739 0.4233833 0.709067 0.4308603 0.7085788 0.4329356 0.7071139 0.4311655 0.6981415 0.4329356 0.6946929 0.4279611 0.6854152 0.4233833 0.6870022 0.4317759 0.6854152 0.4254891 0.6814478 0.4233833 0.6830348 0.4233833 0.6699118 0.4233833 0.6780297 0.708182 0.7606739 0.708182 0.8764306 0.700766 0.8764001 0.7013459 0.7606739 0.6887417 0.8764306 0.7089755 0.7086093 0.6887417 0.7606739 0.700705 0.706412 0.7025666 0.7078158 0.7093112 0.6865444 0.701651 0.6976836 0.7002472 0.6946013 0.7042146 0.6865749 0.7029634 0.6848658 0.7067171 0.6814478 0.7093112 0.682577 0.7093112 0.669454 0.7093112 0.677572 0.708182 0.9599292 0.708182 1.019898 0.6887417 1.019898 0.6984466 0.8764306 0.708182 0.8764306 0.6887417 0.9599292 0.6887417 0.8764306 0.6481826 1.019318 0.6683859 0.8764306 0.6480911 0.959685 0.64803 0.8764306 0.6073183 1.019898 0.6276742 0.8764306 0.6073183 0.9599292 0.6073183 0.8764306 0.5665761 1.019898 0.586932 0.8764306 0.5665761 0.9599292 0.5665761 0.8764306 0.5462203 0.8764306 0.525132 0.9592883 0.5258644 0.8764306 0.5241249 1.018342 0.5047456 0.8764306 0.4851528 0.9599292 0.4851528 0.8764306 0.4851528 1.019898 0.4647664 0.8764306 0.4647664 1.019898 0.4444105 1.019898 0.4444105 0.9599292 0.4444105 0.8764306 0.4343089 0.8764306 0.4242073 0.9599292 0.4242073 1.019898 0.4242073 0.8764306 0.891934 0.7894223 0.853206 0.8093508 0.8535417 0.7824946 0.8151494 0.7894223 0.9244667 0.8092288 0.782281 0.8092288 0.8522904 0.8737449 0.9462264 0.8388318 0.7608265 0.8388318 0.953856 0.8737449 0.7531968 0.8737449 0.9462264 0.9086581 0.7608265 0.9086581 0.9244667 0.938261 0.7825862 0.938261 0.891934 0.9580675 0.8185064 0.9122593 0.8535417 0.9649953 0.8151494 0.9580675 0.8059328 0.9490951 0.817713 0.9122593 0.782281 0.938261 0.8143864 0.958037 0.8510392 0.8737449 0.760796 0.9086581 0.8522904 0.9649647 0.7532884 0.8737449 0.891934 0.958037 0.760796 0.8388318 0.9244667 0.938261 0.782281 0.8092288 0.9462264 0.9086581 0.8143864 0.7894528 0.953856 0.8737449 0.8522904 0.7825251 0.9462264 0.8388318 0.891934 0.7894528 0.9244667 0.8092288</float_array>
          <technique_common>
            <accessor source="#TrunkBottomTop__mPltTreeOakTrunk-texcoord-array" count="276" stride="2">
              <param name="S" type="float" />
              <param name="T" type="float" />
            </accessor>
          </technique_common>
        </source>
        <vertices id="TrunkBottomTop__mPltTreeOakTrunk-vertex">
          <input semantic="POSITION" source="#TrunkBottomTop__mPltTreeOakTrunk-position" />
        </vertices>
        <triangles material="mPltTreeOakTrunk" count="392">
          <input semantic="VERTEX" source="#TrunkBottomTop__mPltTreeOakTrunk-vertex" offset="0" />
          <input semantic="NORMAL" source="#TrunkBottomTop__mPltTreeOakTrunk-normal" offset="1" />
          <input semantic="TEXCOORD" source="#TrunkBottomTop__mPltTreeOakTrunk-texcoord" offset="2" set="0" />
          <p>0 0 0 1 1 1 2 2 2 3 3 3 4 4 4 5 5 5 6 6 6 7 7 7 8 8 8 9 9 9 10 10 10 11 11 11 10 10 10 12 12 12 11 11 11 10 10 10 13 13 13 14 14 14 15 15 15 10 10 10 14 14 14 13 13 13 16 16 16 14 14 14 17 17 17 16 16 16 13 13 13 15 15 15 14 14 14 18 18 18 14 14 14 16 16 16 18 18 18 19 19 19 16 16 16 17 17 17 19 19 19 18 18 18 16 16 16 17 17 17 20 20 20 19 19 19 21 21 21 15 15 15 18 18 18 20 20 20 22 22 22 19 19 19 20 20 20 23 23 23 22 22 22 18 18 18 19 19 19 24 24 24 21 21 21 18 18 18 24 24 24 22 22 22 25 25 25 19 19 19 25 25 25 24 24 24 19 19 19 21 21 21 26 26 26 15 15 15 26 26 26 27 27 27 15 15 15 28 28 28 21 21 21 24 24 24 26 26 26 29 29 29 27 27 27 27 27 27 29 29 29 30 30 30 30 30 30 29 29 29 31 31 31 32 32 32 26 26 26 21 21 21 28 28 28 32 32 32 21 21 21 33 33 33 29 29 29 26 26 26 31 31 31 29 29 29 33 33 33 32 32 32 33 33 33 26 26 26 34 34 34 31 31 31 33 33 33 32 32 32 28 28 28 35 35 35 35 35 35 28 28 28 24 24 24 25 25 25 35 35 35 24 24 24 36 36 36 34 34 34 33 33 33 36 36 36 37 37 37 34 34 34 32 32 32 38 38 38 33 33 33 38 38 38 36 36 36 33 33 33 38 38 38 32 32 32 35 35 35 39 39 39 36 36 36 38 38 38 37 37 37 36 36 36 39 39 39 38 38 38 35 35 35 40 40 40 40 40 40 39 39 39 38 38 38 25 25 25 41 41 41 35 35 35 41 41 41 25 25 25 22 22 22 35 35 35 42 42 42 40 40 40 41 41 41 42 42 42 35 35 35 43 43 43 41 41 41 22 22 22 43 43 43 22 22 22 23 23 23 41 41 41 44 44 44 42 42 42 41 41 41 43 43 43 45 45 45 42 42 42 44 44 44 46 46 46 40 40 40 42 42 42 46 46 46 44 44 44 41 41 41 47 47 47 41 41 41 45 45 45 47 47 47 43 43 43 48 48 48 45 45 45 23 23 23 48 48 48 43 43 43 49 49 49 45 45 45 48 48 48 49 49 49 47 47 47 45 45 45 50 50 50 48 48 48 23 23 23 50 50 50 49 49 49 48 48 48 23 23 23 51 51 51 50 50 50 49 49 49 50 50 50 51 51 51 51 51 51 23 23 23 52 52 52 51 51 51 52 52 52 53 53 53 52 52 52 54 54 54 53 53 53 53 53 53 54 54 54 55 55 55 56 56 56 51 51 51 53 53 53 56 56 56 49 49 49 51 51 51 57 57 57 53 53 53 55 55 55 58 58 58 56 56 56 53 53 53 58 58 58 53 53 53 57 57 57 57 57 57 55 55 55 59 59 59 55 55 55 60 60 60 59 59 59 59 59 59 60 60 60 61 61 61 59 59 59 62 62 62 57 57 57 58 58 58 57 57 57 62 62 62 63 63 63 59 59 59 61 61 61 63 63 63 62 62 62 59 59 59 61 61 61 64 64 64 63 63 63 64 64 64 61 61 61 65 65 65 65 65 65 66 66 66 64 64 64 62 62 62 63 63 63 67 67 67 63 63 63 64 64 64 67 67 67 68 68 68 58 58 58 62 62 62 68 68 68 62 62 62 67 67 67 58 58 58 68 68 68 69 69 69 69 69 69 68 68 68 67 67 67 56 56 56 58 58 58 69 69 69 56 56 56 69 69 69 49 49 49 70 70 70 67 67 67 64 64 64 70 70 70 69 69 69 67 67 67 66 66 66 71 71 71 64 64 64 71 71 71 70 70 70 64 64 64 66 66 66 72 72 72 71 71 71 73 73 73 69 69 69 70 70 70 69 69 69 73 73 73 49 49 49 74 74 74 70 70 70 71 71 71 74 74 74 73 73 73 70 70 70 75 75 75 71 71 71 72 72 72 75 75 75 74 74 74 71 71 71 73 73 73 76 76 76 49 49 49 76 76 76 47 47 47 49 49 49 74 74 74 77 77 77 73 73 73 73 73 73 77 77 77 76 76 76 74 74 74 75 75 75 78 78 78 47 47 47 76 76 76 79 79 79 47 47 47 79 79 79 44 44 44 75 75 75 80 80 80 78 78 78 72 72 72 80 80 80 75 75 75 78 78 78 80 80 80 81 81 81 81 81 81 80 80 80 72 72 72 74 74 74 78 78 78 82 82 82 74 74 74 82 82 82 77 77 77 83 83 83 78 78 78 81 81 81 82 82 82 78 78 78 83 83 83 72 72 72 84 84 84 81 81 81 84 84 84 83 83 83 81 81 81 84 84 84 72 72 72 85 85 85 84 84 84 85 85 85 86 86 86 85 85 85 87 87 87 86 86 86 88 88 88 83 83 83 84 84 84 86 86 86 88 88 88 84 84 84 87 87 87 89 89 89 86 86 86 90 90 90 89 89 89 87 87 87 89 89 89 91 91 91 86 86 86 88 88 88 86 86 86 91 91 91 89 89 89 90 90 90 92 92 92 92 92 92 91 91 91 89 89 89 90 90 90 93 93 93 92 92 92 93 93 93 94 94 94 92 92 92 94 94 94 91 91 91 92 92 92 93 93 93 95 95 95 94 94 94 88 88 88 91 91 91 96 96 96 96 96 96 91 91 91 94 94 94 95 95 95 97 97 97 94 94 94 98 98 98 97 97 97 95 95 95 99 99 99 96 96 96 94 94 94 94 94 94 97 97 97 99 99 99 100 100 100 97 97 97 98 98 98 100 100 100 99 99 99 97 97 97 98 98 98 101 101 101 100 100 100 96 96 96 99 99 99 102 102 102 99 99 99 100 100 100 102 102 102 101 101 101 103 103 103 100 100 100 103 103 103 102 102 102 100 100 100 101 101 101 104 104 104 103 103 103 105 105 105 96 96 96 102 102 102 105 105 105 88 88 88 96 96 96 88 88 88 105 105 105 106 106 106 106 106 106 105 105 105 102 102 102 83 83 83 88 88 88 106 106 106 107 107 107 102 102 102 103 103 103 107 107 107 106 106 106 102 102 102 108 108 108 107 107 107 103 103 103 108 108 108 103 103 103 104 104 104 83 83 83 106 106 106 109 109 109 82 82 82 83 83 83 109 109 109 106 106 106 110 110 110 109 109 109 82 82 82 109 109 109 111 111 111 82 82 82 111 111 111 77 77 77 109 109 109 110 110 110 112 112 112 109 109 109 112 112 112 111 111 111 110 110 110 106 106 106 113 113 113 110 110 110 113 113 113 112 112 112 106 106 106 107 107 107 113 113 113 111 111 111 112 112 112 114 114 114 112 112 112 115 115 115 114 114 114 112 112 112 113 113 113 115 115 115 111 111 111 114 114 114 116 116 116 113 113 113 117 117 117 115 115 115 118 118 118 111 111 111 116 116 116 111 111 111 118 118 118 77 77 77 118 118 118 116 116 116 119 119 119 77 77 77 118 118 118 76 76 76 120 120 120 118 118 118 119 119 119 118 118 118 120 120 120 76 76 76 120 120 120 119 119 119 121 121 121 76 76 76 120 120 120 79 79 79 79 79 79 120 120 120 121 121 121 79 79 79 121 121 121 122 122 122 79 79 79 122 122 122 44 44 44 121 121 121 123 123 123 122 122 122 44 44 44 122 122 122 124 124 124 122 122 122 123 123 123 124 124 124 46 46 46 44 44 44 124 124 124 123 123 123 125 125 125 124 124 124 124 124 124 125 125 125 126 126 126 46 46 46 124 124 124 126 126 126 125 125 125 127 127 127 126 126 126 128 128 128 46 46 46 126 126 126 128 128 128 40 40 40 46 46 46 126 126 126 127 127 127 129 129 129 127 127 127 130 130 130 129 129 129 128 128 128 126 126 126 131 131 131 126 126 126 129 129 129 131 131 131 128 128 128 132 132 132 40 40 40 40 40 40 132 132 132 39 39 39 129 129 129 130 130 130 133 133 133 130 130 130 134 134 134 133 133 133 132 132 132 135 135 135 39 39 39 39 39 39 135 135 135 37 37 37 136 136 136 135 135 135 132 132 132 37 37 37 135 135 135 136 136 136 137 137 137 132 132 132 128 128 128 137 137 137 136 136 136 132 132 132 137 137 137 128 128 128 131 131 131 136 136 136 138 138 138 37 37 37 136 136 136 137 137 137 138 138 138 139 139 139 37 37 37 138 138 138 139 139 139 138 138 138 140 140 140 141 141 141 139 139 139 140 140 140 140 140 140 142 142 142 141 141 141 137 137 137 143 143 143 138 138 138 138 138 138 143 143 143 140 140 140 142 142 142 140 140 140 144 144 144 144 144 144 140 140 140 143 143 143 142 142 142 144 144 144 145 145 145 146 146 146 142 142 142 145 145 145 144 144 144 147 147 147 145 145 145 147 147 147 144 144 144 143 143 143 145 145 145 148 148 148 146 146 146 147 147 147 148 148 148 145 145 145 146 146 146 148 148 148 149 149 149 148 148 148 147 147 147 149 149 149 150 150 150 146 146 146 149 149 149 147 147 147 151 151 151 149 149 149 151 151 151 150 150 150 149 149 149 152 152 152 147 147 147 143 143 143 151 151 151 153 153 153 150 150 150 153 153 153 154 154 154 150 150 150 155 155 155 154 154 154 153 153 153 156 156 156 151 151 151 147 147 147 156 156 156 153 153 153 151 151 151 152 152 152 156 156 156 147 147 147 157 157 157 155 155 155 153 153 153 153 153 153 156 156 156 157 157 157 157 157 157 158 158 158 155 155 155 156 156 156 152 152 152 159 159 159 159 159 159 152 152 152 143 143 143 137 137 137 159 159 159 143 143 143 137 137 137 131 131 131 159 159 159 156 156 156 160 160 160 157 157 157 160 160 160 156 156 156 159 159 159 159 159 159 131 131 131 161 161 161 161 161 161 160 160 160 159 159 159 131 131 131 129 129 129 161 161 161 129 129 129 133 133 133 161 161 161 133 133 133 162 162 162 161 161 161 162 162 162 160 160 160 161 161 161 133 133 133 134 134 134 162 162 162 134 134 134 163 163 163 162 162 162 163 163 163 164 164 164 162 162 162 160 160 160 162 162 162 165 165 165 164 164 164 165 165 165 162 162 162 157 157 157 160 160 160 166 166 166 166 166 166 160 160 160 165 165 165 158 158 158 157 157 157 166 166 166 165 165 165 164 164 164 167 167 167 168 168 168 167 167 167 164 164 164 169 169 169 167 167 167 168 168 168 167 167 167 169 169 169 170 170 170 171 171 171 167 167 167 170 170 170 167 167 167 171 171 171 165 165 165 165 165 165 171 171 171 172 172 172 173 173 173 165 165 165 172 172 172 165 165 165 173 173 173 166 166 166 174 174 174 158 158 158 166 166 166 173 173 173 174 174 174 166 166 166 158 158 158 174 174 174 175 175 175 175 175 175 174 174 174 173 173 173 176 176 176 158 158 158 175 175 175 173 173 173 172 172 172 177 177 177 175 175 175 173 173 173 177 177 177 176 176 176 175 175 175 177 177 177 177 177 177 172 172 172 178 178 178 179 179 179 176 176 176 177 177 177 177 177 177 178 178 178 180 180 180 179 179 179 177 177 177 180 180 180 178 178 178 181 181 181 180 180 180 182 182 182 179 179 179 180 180 180 180 180 180 181 181 181 183 183 183 180 180 180 183 183 183 182 182 182 184 184 184 185 185 185 186 186 186 187 187 187 184 184 184 186 186 186 187 187 187 186 186 186 188 188 188 189 189 189 184 184 184 187 187 187 190 190 190 187 187 187 188 188 188 190 190 190 188 188 188 117 117 117 113 113 113 190 190 190 117 117 117 113 113 113 107 107 107 190 190 190 107 107 107 108 108 108 190 190 190 190 190 190 108 108 108 187 187 187 108 108 108 191 191 191 187 187 187 191 191 191 108 108 108 104 104 104 192 192 192 189 189 189 187 187 187 187 187 187 191 191 191 192 192 192 192 192 192 193 193 193 189 189 189 104 104 104 194 194 194 191 191 191 192 192 192 191 191 191 194 194 194 104 104 104 195 195 195 194 194 194 194 194 194 196 196 196 192 192 192 194 194 194 195 195 195 196 196 196 196 196 196 193 193 193 192 192 192 195 195 195 197 197 197 196 196 196 193 193 193 196 196 196 198 198 198 196 196 196 197 197 197 198 198 198 199 199 199 193 193 193 198 198 198 197 197 197 200 200 200 198 198 198 201 201 201 199 199 199 198 198 198 201 201 201 198 198 198 200 200 200 202 202 202 203 203 203 204 204 204 202 202 202 205 205 205 206 206 206 207 207 207 202 202 202 204 204 204 205 205 205 202 202 202 207 207 207 208 208 208 205 205 205 207 207 207 204 204 204 209 209 209 207 207 207 207 207 207 210 210 210 208 208 208 209 209 209 211 211 211 207 207 207 207 207 207 211 211 211 210 210 210 211 211 211 212 212 212 210 210 210 211 211 211 209 209 209 213 213 213 211 211 211 214 214 214 212 212 212 215 215 215 211 211 211 213 213 213 215 215 215 214 214 214 211 211 211 214 214 214 215 215 215 216 216 216 215 215 215 213 213 213 217 217 217 215 215 215 218 218 218 216 216 216 219 219 219 218 218 218 215 215 215 219 219 219 215 215 215 217 217 217 218 218 218 219 219 219 220 220 220 220 220 220 219 219 219 221 221 221 219 219 219 217 217 217 222 222 222 221 221 221 219 219 219 222 222 222 221 221 221 222 222 222 223 223 223 217 217 217 224 224 224 222 222 222 223 223 223 222 222 222 225 225 225 222 222 222 224 224 224 226 226 226 225 225 225 222 222 222 226 226 226 225 225 225 226 226 226 227 227 227 224 224 224 228 228 228 226 226 226 227 227 227 226 226 226 229 229 229 230 230 230 231 231 231 228 228 228 226 226 226 232 232 232 229 229 229 228 228 228 232 232 232 226 226 226 231 231 231 232 232 232 228 228 228 229 229 229 232 232 232 233 233 233 232 232 232 234 234 234 233 233 233 235 235 235 232 232 232 231 231 231 232 232 232 235 235 235 234 234 234 236 236 236 235 235 235 231 231 231 234 234 234 235 235 235 237 237 237 238 238 238 239 239 239 240 240 240 240 240 240 239 239 239 241 241 241 238 238 238 242 242 242 239 239 239 241 241 241 239 239 239 243 243 243 242 242 242 244 244 244 239 239 239 239 239 239 244 244 244 243 243 243 245 245 245 244 244 244 242 242 242 243 243 243 244 244 244 246 246 246 245 245 245 247 247 247 244 244 244 246 246 246 244 244 244 248 248 248 249 249 249 244 244 244 247 247 247 244 244 244 250 250 250 248 248 248 251 251 251 244 244 244 249 249 249 244 244 244 252 252 252 250 250 250 253 253 253 244 244 244 251 251 251 244 244 244 254 254 254 252 252 252 255 255 255 244 244 244 253 253 253 244 244 244 256 256 256 254 254 254 255 255 255 256 256 256 244 244 244 257 257 257 258 258 258 259 259 259 260 260 260 258 258 258 257 257 257 258 258 258 261 261 261 259 259 259 260 260 260 261 261 261 258 258 258 259 259 259 261 261 261 262 262 262 263 263 263 261 261 261 260 260 260 261 261 261 264 264 264 262 262 262 265 265 265 261 261 261 263 263 263 264 264 264 261 261 261 266 266 266 267 267 267 261 261 261 265 265 265 266 266 266 261 261 261 268 268 268 267 267 267 269 269 269 261 261 261 268 268 268 261 261 261 270 270 270 261 261 261 269 269 269 271 271 271 270 270 270 261 261 261 272 272 272 273 273 273 261 261 261 271 271 271 272 272 272 261 261 261 274 274 274 275 275 275 261 261 261 273 273 273 274 274 274 261 261 261 275 275 275 </p>
        </triangles>
      </mesh>
    </geometry>
  </library_geometries>
  <library_controllers>
    <controller id="Armature_L01_01__mTreeOakLeaf-mesh">
      <skin source="#L01_01__mTreeOakLeaf-mesh">
        <bind_shape_matrix>1 0 0 0 0 1 0 0 0 0 1 0 0 0 0 1</bind_shape_matrix>
        <source id="L01_01__mTreeOakLeaf-mesh-joint">
          <Name_array id="L01_01__mTreeOakLeaf-mesh-joint-array" count="1">Root</Name_array>
          <technique_common>
            <accessor source="#L01_01__mTreeOakLeaf-mesh-joint-array" count="1" stride="1">
              <param name="JOINT" type="name" />
            </accessor>
          </technique_common>
        </source>
        <source id="L01_01__mTreeOakLeaf-mesh-inv_bind_matrix">
          <float_array id="L01_01__mTreeOakLeaf-mesh-inv_bind_matrix-array" count="16">1 0 0 0 0 1 0 0 0 0 1 0 0 0 0 1</float_array>
          <technique_common>
            <accessor source="#L01_01__mTreeOakLeaf-mesh-inv_bind_matrix-array" count="1" stride="16">
              <param name="TRANSFORM" type="float4x4" />
            </accessor>
          </technique_common>
        </source>
        <source id="L01_01__mTreeOakLeaf-mesh-weight">
          <float_array id="L01_01__mTreeOakLeaf-mesh-weight-array" count="1">1</float_array>
          <technique_common>
            <accessor source="#L01_01__mTreeOakLeaf-mesh-weight-array" count="1" stride="1">
              <param name="WEIGHT" type="float" />
            </accessor>
          </technique_common>
        </source>
        <joints>
          <input semantic="JOINT" source="#L01_01__mTreeOakLeaf-mesh-joint" />
          <input semantic="INV_BIND_MATRIX" source="#L01_01__mTreeOakLeaf-mesh-inv_bind_matrix" />
        </joints>
        <vertex_weights count="156">
          <input semantic="JOINT" source="#L01_01__mTreeOakLeaf-mesh-joint" offset="0" />
          <input semantic="WEIGHT" source="#L01_01__mTreeOakLeaf-mesh-weight" offset="1" />
          <vcount>1 1 1 1 1 1 1 1 1 1 1 1 1 1 1 1 1 1 1 1 1 1 1 1 1 1 1 1 1 1 1 1 1 1 1 1 1 1 1 1 1 1 1 1 1 1 1 1 1 1 1 1 1 1 1 1 1 1 1 1 1 1 1 1 1 1 1 1 1 1 1 1 1 1 1 1 1 1 1 1 1 1 1 1 1 1 1 1 1 1 1 1 1 1 1 1 1 1 1 1 1 1 1 1 1 1 1 1 1 1 1 1 1 1 1 1 1 1 1 1 1 1 1 1 1 1 1 1 1 1 1 1 1 1 1 1 1 1 1 1 1 1 1 1 1 1 1 1 1 1 1 1 1 1 1 1 </vcount>
          <v>0 0 0 0 0 0 0 0 0 0 0 0 0 0 0 0 0 0 0 0 0 0 0 0 0 0 0 0 0 0 0 0 0 0 0 0 0 0 0 0 0 0 0 0 0 0 0 0 0 0 0 0 0 0 0 0 0 0 0 0 0 0 0 0 0 0 0 0 0 0 0 0 0 0 0 0 0 0 0 0 0 0 0 0 0 0 0 0 0 0 0 0 0 0 0 0 0 0 0 0 0 0 0 0 0 0 0 0 0 0 0 0 0 0 0 0 0 0 0 0 0 0 0 0 0 0 0 0 0 0 0 0 0 0 0 0 0 0 0 0 0 0 0 0 0 0 0 0 0 0 0 0 0 0 0 0 0 0 0 0 0 0 0 0 0 0 0 0 0 0 0 0 0 0 0 0 0 0 0 0 0 0 0 0 0 0 0 0 0 0 0 0 0 0 0 0 0 0 0 0 0 0 0 0 0 0 0 0 0 0 0 0 0 0 0 0 0 0 0 0 0 0 0 0 0 0 0 0 0 0 0 0 0 0 0 0 0 0 0 0 0 0 0 0 0 0 0 0 0 0 0 0 0 0 0 0 0 0 0 0 0 0 0 0 0 0 0 0 0 0 0 0 0 0 0 0 0 0 0 0 0 0 0 0 0 0 0 0 0 0 0 0 0 0 0 0 0 0 0 0 0 0 0 0 0 0 0 0 0 0 0 0 </v>
        </vertex_weights>
      </skin>
    </controller>
    <controller id="Armature_LB01__mTreeOakLeafBack-mesh">
      <skin source="#LB01__mTreeOakLeafBack-mesh">
        <bind_shape_matrix>1 0 0 0 0 1 0 0 0 0 1 0 0 0 0 1</bind_shape_matrix>
        <source id="LB01__mTreeOakLeafBack-mesh-joint">
          <Name_array id="LB01__mTreeOakLeafBack-mesh-joint-array" count="1">Root</Name_array>
          <technique_common>
            <accessor source="#LB01__mTreeOakLeafBack-mesh-joint-array" count="1" stride="1">
              <param name="JOINT" type="name" />
            </accessor>
          </technique_common>
        </source>
        <source id="LB01__mTreeOakLeafBack-mesh-inv_bind_matrix">
          <float_array id="LB01__mTreeOakLeafBack-mesh-inv_bind_matrix-array" count="16">1 0 0 0 0 1 0 0 0 0 1 0 0 0 0 1</float_array>
          <technique_common>
            <accessor source="#LB01__mTreeOakLeafBack-mesh-inv_bind_matrix-array" count="1" stride="16">
              <param name="TRANSFORM" type="float4x4" />
            </accessor>
          </technique_common>
        </source>
        <source id="LB01__mTreeOakLeafBack-mesh-weight">
          <float_array id="LB01__mTreeOakLeafBack-mesh-weight-array" count="1">1</float_array>
          <technique_common>
            <accessor source="#LB01__mTreeOakLeafBack-mesh-weight-array" count="1" stride="1">
              <param name="WEIGHT" type="float" />
            </accessor>
          </technique_common>
        </source>
        <joints>
          <input semantic="JOINT" source="#LB01__mTreeOakLeafBack-mesh-joint" />
          <input semantic="INV_BIND_MATRIX" source="#LB01__mTreeOakLeafBack-mesh-inv_bind_matrix" />
        </joints>
        <vertex_weights count="27">
          <input semantic="JOINT" source="#LB01__mTreeOakLeafBack-mesh-joint" offset="0" />
          <input semantic="WEIGHT" source="#LB01__mTreeOakLeafBack-mesh-weight" offset="1" />
          <vcount>1 1 1 1 1 1 1 1 1 1 1 1 1 1 1 1 1 1 1 1 1 1 1 1 1 1 1 </vcount>
          <v>0 0 0 0 0 0 0 0 0 0 0 0 0 0 0 0 0 0 0 0 0 0 0 0 0 0 0 0 0 0 0 0 0 0 0 0 0 0 0 0 0 0 0 0 0 0 0 0 0 0 0 0 0 0 </v>
        </vertex_weights>
      </skin>
    </controller>
    <controller id="Armature_TrunkBottomTop__mPltTreeOakTrunk-mesh">
      <skin source="#TrunkBottomTop__mPltTreeOakTrunk-mesh">
        <bind_shape_matrix>1 0 0 0 0 1 0 0 0 0 1 0 0 0 0 1</bind_shape_matrix>
        <source id="TrunkBottomTop__mPltTreeOakTrunk-mesh-joint">
          <Name_array id="TrunkBottomTop__mPltTreeOakTrunk-mesh-joint-array" count="1">Root</Name_array>
          <technique_common>
            <accessor source="#TrunkBottomTop__mPltTreeOakTrunk-mesh-joint-array" count="1" stride="1">
              <param name="JOINT" type="name" />
            </accessor>
          </technique_common>
        </source>
        <source id="TrunkBottomTop__mPltTreeOakTrunk-mesh-inv_bind_matrix">
          <float_array id="TrunkBottomTop__mPltTreeOakTrunk-mesh-inv_bind_matrix-array" count="16">1 0 0 0 0 1 0 0 0 0 1 0 0 0 0 1</float_array>
          <technique_common>
            <accessor source="#TrunkBottomTop__mPltTreeOakTrunk-mesh-inv_bind_matrix-array" count="1" stride="16">
              <param name="TRANSFORM" type="float4x4" />
            </accessor>
          </technique_common>
        </source>
        <source id="TrunkBottomTop__mPltTreeOakTrunk-mesh-weight">
          <float_array id="TrunkBottomTop__mPltTreeOakTrunk-mesh-weight-array" count="1">1</float_array>
          <technique_common>
            <accessor source="#TrunkBottomTop__mPltTreeOakTrunk-mesh-weight-array" count="1" stride="1">
              <param name="WEIGHT" type="float" />
            </accessor>
          </technique_common>
        </source>
        <joints>
          <input semantic="JOINT" source="#TrunkBottomTop__mPltTreeOakTrunk-mesh-joint" />
          <input semantic="INV_BIND_MATRIX" source="#TrunkBottomTop__mPltTreeOakTrunk-mesh-inv_bind_matrix" />
        </joints>
        <vertex_weights count="276">
          <input semantic="JOINT" source="#TrunkBottomTop__mPltTreeOakTrunk-mesh-joint" offset="0" />
          <input semantic="WEIGHT" source="#TrunkBottomTop__mPltTreeOakTrunk-mesh-weight" offset="1" />
          <vcount>1 1 1 1 1 1 1 1 1 1 1 1 1 1 1 1 1 1 1 1 1 1 1 1 1 1 1 1 1 1 1 1 1 1 1 1 1 1 1 1 1 1 1 1 1 1 1 1 1 1 1 1 1 1 1 1 1 1 1 1 1 1 1 1 1 1 1 1 1 1 1 1 1 1 1 1 1 1 1 1 1 1 1 1 1 1 1 1 1 1 1 1 1 1 1 1 1 1 1 1 1 1 1 1 1 1 1 1 1 1 1 1 1 1 1 1 1 1 1 1 1 1 1 1 1 1 1 1 1 1 1 1 1 1 1 1 1 1 1 1 1 1 1 1 1 1 1 1 1 1 1 1 1 1 1 1 1 1 1 1 1 1 1 1 1 1 1 1 1 1 1 1 1 1 1 1 1 1 1 1 1 1 1 1 1 1 1 1 1 1 1 1 1 1 1 1 1 1 1 1 1 1 1 1 1 1 1 1 1 1 1 1 1 1 1 1 1 1 1 1 1 1 1 1 1 1 1 1 1 1 1 1 1 1 1 1 1 1 1 1 1 1 1 1 1 1 1 1 1 1 1 1 1 1 1 1 1 1 1 1 1 1 1 1 1 1 1 1 1 1 1 1 1 1 1 1 </vcount>
          <v>0 0 0 0 0 0 0 0 0 0 0 0 0 0 0 0 0 0 0 0 0 0 0 0 0 0 0 0 0 0 0 0 0 0 0 0 0 0 0 0 0 0 0 0 0 0 0 0 0 0 0 0 0 0 0 0 0 0 0 0 0 0 0 0 0 0 0 0 0 0 0 0 0 0 0 0 0 0 0 0 0 0 0 0 0 0 0 0 0 0 0 0 0 0 0 0 0 0 0 0 0 0 0 0 0 0 0 0 0 0 0 0 0 0 0 0 0 0 0 0 0 0 0 0 0 0 0 0 0 0 0 0 0 0 0 0 0 0 0 0 0 0 0 0 0 0 0 0 0 0 0 0 0 0 0 0 0 0 0 0 0 0 0 0 0 0 0 0 0 0 0 0 0 0 0 0 0 0 0 0 0 0 0 0 0 0 0 0 0 0 0 0 0 0 0 0 0 0 0 0 0 0 0 0 0 0 0 0 0 0 0 0 0 0 0 0 0 0 0 0 0 0 0 0 0 0 0 0 0 0 0 0 0 0 0 0 0 0 0 0 0 0 0 0 0 0 0 0 0 0 0 0 0 0 0 0 0 0 0 0 0 0 0 0 0 0 0 0 0 0 0 0 0 0 0 0 0 0 0 0 0 0 0 0 0 0 0 0 0 0 0 0 0 0 0 0 0 0 0 0 0 0 0 0 0 0 0 0 0 0 0 0 0 0 0 0 0 0 0 0 0 0 0 0 0 0 0 0 0 0 0 0 0 0 0 0 0 0 0 0 0 0 0 0 0 0 0 0 0 0 0 0 0 0 0 0 0 0 0 0 0 0 0 0 0 0 0 0 0 0 0 0 0 0 0 0 0 0 0 0 0 0 0 0 0 0 0 0 0 0 0 0 0 0 0 0 0 0 0 0 0 0 0 0 0 0 0 0 0 0 0 0 0 0 0 0 0 0 0 0 0 0 0 0 0 0 0 0 0 0 0 0 0 0 0 0 0 0 0 0 0 0 0 0 0 0 0 0 0 0 0 0 0 0 0 0 0 0 0 0 0 0 0 0 0 0 0 0 0 0 0 0 0 0 0 0 0 0 0 0 0 0 0 0 0 0 0 0 0 0 0 0 0 0 0 0 0 0 0 0 0 0 0 0 0 0 0 0 0 0 0 0 0 0 0 0 0 0 0 0 0 0 0 0 0 0 0 0 0 0 0 0 0 0 0 0 0 0 0 0 0 0 0 0 0 0 0 0 0 0 0 0 </v>
        </vertex_weights>
      </skin>
    </controller>
  </library_controllers>
  <library_visual_scenes>
    <visual_scene id="Scene" name="Scene">
      <node id="Armature" name="Armature" type="NODE">
        <matrix sid="transform">1 0 0 0 0 1 0 0 0 0 1 0 0 0 0 1</matrix>
        <node id="Armature_Root" name="Root" sid="Root" type="JOINT">
          <matrix sid="transform">1 0 0 0 0 1 0 0 0 0 1 0 0 0 0 1</matrix>
        </node>
      </node>
      <node id="L01_01__mTreeOakLeaf" name="L01_01__mTreeOakLeaf" type="NODE">
        <instance_controller url="#Armature_L01_01__mTreeOakLeaf-mesh">
          <skeleton>#Armature_Root</skeleton>
          <bind_material>
            <technique_common>
              <instance_material symbol="mTreeOakLeaf" target="#mTreeOakLeaf" />
              <bind_vertex_input semantic="CHANNEL0" input_semantic="TEXCOORD" input_set="0" />
              <bind_vertex_input semantic="CHANNEL1" input_semantic="TEXCOORD" input_set="1" />
              <bind_vertex_input semantic="CHANNEL2" input_semantic="TEXCOORD" input_set="2" />
            </technique_common>
          </bind_material>
        </instance_controller>
      </node>
      <node id="LB01__mTreeOakLeafBack" name="LB01__mTreeOakLeafBack" type="NODE">
        <instance_controller url="#Armature_LB01__mTreeOakLeafBack-mesh">
          <skeleton>#Armature_Root</skeleton>
          <bind_material>
            <technique_common>
              <instance_material symbol="mTreeOakLeafBack" target="#mTreeOakLeafBack" />
              <bind_vertex_input semantic="CHANNEL0" input_semantic="TEXCOORD" input_set="0" />
              <bind_vertex_input semantic="CHANNEL1" input_semantic="TEXCOORD" input_set="1" />
              <bind_vertex_input semantic="CHANNEL2" input_semantic="TEXCOORD" input_set="2" />
            </technique_common>
          </bind_material>
        </instance_controller>
      </node>
      <node id="TrunkBottomTop__mPltTreeOakTrunk" name="TrunkBottomTop__mPltTreeOakTrunk" type="NODE">
        <instance_controller url="#Armature_TrunkBottomTop__mPltTreeOakTrunk-mesh">
          <skeleton>#Armature_Root</skeleton>
          <bind_material>
            <technique_common>
              <instance_material symbol="mPltTreeOakTrunk" target="#mPltTreeOakTrunk" />
              <bind_vertex_input semantic="CHANNEL0" input_semantic="TEXCOORD" input_set="0" />
              <bind_vertex_input semantic="CHANNEL1" input_semantic="TEXCOORD" input_set="1" />
              <bind_vertex_input semantic="CHANNEL2" input_semantic="TEXCOORD" input_set="2" />
            </technique_common>
          </bind_material>
        </instance_controller>
      </node>
    </visual_scene>
  </library_visual_scenes>
  <scene>
    <instance_visual_scene url="#Scene" />
  </scene>
</COLLADA>