<?xml version="1.0" encoding="utf-8"?>
<COLLADA xmlns="http://www.collada.org/2005/11/COLLADASchema" version="1.4.1">
  <asset />
  <library_images>
    <image id="mPltTreeOakLeafColor_Grd">
      <init_from>mPltTreeOakLeafColor_Grd.png</init_from>
    </image>
    <image id="mPltTreeOakTrunkColor_Grd">
      <init_from>mPltTreeOakTrunkColor_Grd.png</init_from>
    </image>
    <image id="mPltTreeOakTrunk_AlbGry">
      <init_from>mPltTreeOakTrunk_AlbGry.png</init_from>
    </image>
    <image id="mPltTreeOakTrunk_Mix">
      <init_from>mPltTreeOakTrunk_Mix.png</init_from>
    </image>
    <image id="mPltTreeOakTrunk_Nrm">
      <init_from>mPltTreeOakTrunk_Nrm.png</init_from>
    </image>
    <image id="mTreeOakLeafBack_AlbGry">
      <init_from>mTreeOakLeafBack_AlbGry.png</init_from>
    </image>
    <image id="mTreeOakLeafBack_Mix">
      <init_from>mTreeOakLeafBack_Mix.png</init_from>
    </image>
    <image id="mTreeOakLeafBack_Nrm">
      <init_from>mTreeOakLeafBack_Nrm.png</init_from>
    </image>
    <image id="mTreeOakLeafBack_OP">
      <init_from>mTreeOakLeafBack_OP.png</init_from>
    </image>
    <image id="mTreeOakLeaf_AlbGry">
      <init_from>mTreeOakLeaf_AlbGry.png</init_from>
    </image>
    <image id="mTreeOakLeaf_Mix">
      <init_from>mTreeOakLeaf_Mix.png</init_from>
    </image>
    <image id="mTreeOakLeaf_Nrm">
      <init_from>mTreeOakLeaf_Nrm.png</init_from>
    </image>
    <image id="mTreeOakLeaf_OP">
      <init_from>mTreeOakLeaf_OP.png</init_from>
    </image>
  </library_images>
  <library_materials>
    <material id="mPltTreeOakTrunk">
      <instance_effect url="#Effect_mPltTreeOakTrunk" />
    </material>
  </library_materials>
  <library_effects>
    <effect id="Effect_mPltTreeOakTrunk">
      <profile_COMMON>
        <newparam sid="surface_mPltTreeOakTrunk-bump">
          <surface type="2D">
            <init_from>mPltTreeOakTrunk_Nrm</init_from>
            <format>A8R8G8B8</format>
          </surface>
        </newparam>
        <newparam sid="sampler_mPltTreeOakTrunk-bump">
          <sampler2D>
            <source>surface_mPltTreeOakTrunk-bump</source>
            <wrap_s>WRAP</wrap_s>
            <wrap_t>WRAP</wrap_t>
          </sampler2D>
        </newparam>
        <newparam sid="surface_mPltTreeOakTrunk-diffuse">
          <surface type="2D">
            <init_from>mPltTreeOakTrunk_AlbGry</init_from>
            <format>A8R8G8B8</format>
          </surface>
        </newparam>
        <newparam sid="sampler_mPltTreeOakTrunk-diffuse">
          <sampler2D>
            <source>surface_mPltTreeOakTrunk-diffuse</source>
            <wrap_s>WRAP</wrap_s>
            <wrap_t>WRAP</wrap_t>
          </sampler2D>
        </newparam>
        <newparam sid="surface_mPltTreeOakTrunk-specular">
          <surface type="2D">
            <init_from>mPltTreeOakTrunk_Mix</init_from>
            <format>A8R8G8B8</format>
          </surface>
        </newparam>
        <newparam sid="sampler_mPltTreeOakTrunk-specular">
          <sampler2D>
            <source>surface_mPltTreeOakTrunk-specular</source>
            <wrap_s>WRAP</wrap_s>
            <wrap_t>WRAP</wrap_t>
          </sampler2D>
        </newparam>
        <technique sid="common">
          <phong>
            <bump>
              <texture texture="sampler_mPltTreeOakTrunk-bump" texcoord="CHANNEL0" />
            </bump>
            <diffuse>
              <texture texture="sampler_mPltTreeOakTrunk-diffuse" texcoord="CHANNEL0" />
            </diffuse>
            <specular>
              <texture texture="sampler_mPltTreeOakTrunk-specular" texcoord="CHANNEL0" />
            </specular>
            <emission>
              <color sid="emission">0 0 0 1</color>
            </emission>
          </phong>
        </technique>
      </profile_COMMON>
    </effect>
  </library_effects>
  <library_geometries>
    <geometry id="TrunkBottomTop__mPltTreeOakTrunk-mesh" name="TrunkBottomTop__mPltTreeOakTrunk">
      <mesh>
        <source id="TrunkBottomTop__mPltTreeOakTrunk-position">
          <float_array id="TrunkBottomTop__mPltTreeOakTrunk-position-array" count="663">-0.2861988 4 -0.4301526 -0.4693108 3.68 -0.7964634 -0.5959 4 -0.69969 -0.2861988 4 -0.4301526 -0.3895 4 -0.82639 -0.4693108 3.68 -0.7964634 -0.32145 4 -0.8684601 -0.3895 4 -0.82639 -0.2861988 4 -0.4301526 -1.289171 -0.3736966 1.320519 -1.185993 -0.3978822 1.637677 -1.19771 -0.007563353 1.373613 -1.126694 -0.000985384 1.552748 -0.8524738 -0.3736966 1.637798 -0.934434 -0.007563353 1.564893 -1.126694 -0.000985384 1.552748 -0.7394463 -0.002034664 1.512458 -0.633845 -0.3435383 1.526282 -0.9060302 0.1285384 1.50995 -0.6437684 0.145395 1.453473 -0.2042467 -0.216651 1.289468 -1.033264 0.1838949 1.424153 -0.2549937 0.2072742 1.199763 0.03285787 -0.0786376 1.094221 -0.7178687 0.2846684 1.399802 -0.3949441 0.4363482 1.13094 -1.154179 0.1285384 1.329659 -1.19771 -0.007563353 1.373613 -0.9128832 0.3500285 1.258463 -1.209538 -0.001473188 1.171255 -1.289171 -0.3736966 1.320519 -1.250673 -0.3435383 1.07813 -1.106693 0.2846684 1.118107 -1.18777 0.145395 1.059368 -1.158904 -0.216651 0.5958683 -0.673299 0.5289128 0.9287037 -1.059085 0.2072742 0.6196685 -1.034958 -0.0786376 0.343851 -0.950447 0.4363482 0.7273438 -0.9590172 0.2475839 0.4205256 -0.8853592 0.5078058 0.6235607 -0.3176533 0.5078058 1.036023 -0.6373748 0.6255612 0.8792582 -0.06772398 0.2475839 1.043402 -0.4052751 0.9950172 0.8631961 -0.0008112807 0.5298927 1.063653 -0.7773942 0.9950172 0.5928357 7.831585E-05 0.8458235 0.939979 0.0331656 0.2535369 1.059381 0.3279927 0.414361 1.027333 0.1494366 0.2182503 1.064573 0.268418 0.1994214 1.172227 0.2157755 -0.1990435 1.252558 0.6029859 0.1275489 1.424119 0.6114519 -0.3246684 1.478204 0.8217421 -0.3679683 1.57221 0.3960904 0.3624325 1.115968 0.8386357 0.09482288 1.474845 0.6885686 0.22241 1.367109 1.005383 -0.00362587 1.511577 1.059079 -0.3736839 1.600077 1.12672 -0.3679683 1.369563 0.9408153 0.1507068 1.413052 1.03744 0.09482288 1.342746 1.079268 0.1275489 1.106669 1.12498 -0.3246684 1.136984 1.077966 -0.1990435 0.6845779 0.9986907 0.22241 1.160353 0.8436219 0.2684667 1.26369 0.6418097 0.4295814 0.9540974 0.8863001 0.3624325 0.7930357 0.9910301 0.1994214 0.6922116 1.030632 -0.0786376 0.3438509 0.6357523 0.5054579 0.910479 0.8709034 0.414361 0.6328849 0.9640958 0.2292812 0.4416959 0.4054318 0.9950172 0.863196 0.7775508 0.9950172 0.5928358 0.997815 0.533251 0.3293176 -0.0008705575 1.44 0.8320714 0.9838841 0.2535369 0.3295115 1.011068 0.2475839 0.2286218 0.9954098 0.8528922 0.2568809 1.079499 0.5078058 0.02106775 1.217758 0.2072742 0.1263303 1.279039 -0.216651 0.2128182 1.580315 0.145395 -0.1537547 1.636748 -0.3435383 -0.1233996 1.549248 0.2846684 -0.2489318 1.663692 -0.001473188 -0.2314786 1.819125 -0.3736966 -0.2699104 1.712013 0.1285384 -0.3921698 1.798616 -0.002280235 -0.4800299 1.913314 -0.3978822 -0.6141006 1.820905 -0.000985384 -0.5888079 1.634803 -0.3736966 -0.8371935 1.669732 0.1838949 -0.5396888 1.483934 -0.002034664 -0.7838309 1.401141 -0.3435383 -0.8485246 1.617228 0.1285384 -0.683886 1.371858 0.145395 -0.7923485 0.9143921 -0.216651 -0.9094488 1.400259 0.2846684 -0.7053731 0.9082054 0.2072742 -0.8156093 0.6361397 -0.07863736 -0.8702729 1.474952 0.3500285 -0.4764009 1.02917 0.6255612 -0.3315575 0.8626541 0.5078058 -0.6463107 0.6922821 0.2475839 -0.7792138 1.039222 0.9950171 -0.08599424 0.9601218 0.9950171 -0.4836565 0.919513 1.44 0.2484866 0.9953453 1.44 -0.113286 0.9195132 1.44 -0.4750581 0.7785 4 0.13547 0.8427 4 -0.15 0.6 4 0.385 0.7786 4 -0.45128 0.7035605 1.44 0.5551826 0.3225 4 0.549 0.3803647 1.44 0.7601105 -9.313226E-10 4 0.609 -0.3821059 1.44 0.7601104 -0.3225 4 0.55 -0.7053014 1.44 0.5551824 -0.5939 4 0.384 -0.9212538 1.44 0.2484863 -0.7785 4 0.1352 -0.9952533 0.8528922 0.256881 -0.9970861 1.44 -0.1132864 -0.84 4 -0.15 -1.039065 0.9950171 -0.08599461 -0.9994375 0.533251 0.3293176 -0.9212537 1.44 -0.475059 -0.7785 4 -0.4525 -1.005391 0.2535369 0.3295115 -1.046258 0.2292812 0.2205354 -1.076219 0.4250989 0.005981222 -1.208275 0.1994214 0.02859339 -1.273526 -0.1990435 0.09601901 -1.546392 0.1419334 -0.2533812 -1.60149 -0.3201356 -0.2403841 -1.739169 -0.3481538 -0.4434201 -1.511748 0.2396431 -0.3469011 -1.655508 0.09521604 -0.4837416 -1.724679 0.005616665 -0.5847664 -1.826947 -0.3706231 -0.6661836 -1.619911 0.1492047 -0.5935599 -1.729969 0.006819725 -0.6355275 -1.692931 0.005616665 -0.6701482 -1.615877 -0.3481538 -0.7749884 -1.575138 0.09521604 -0.6998791 -1.445091 0.2870827 -0.5268967 -1.341696 0.1419334 -0.8062741 -1.380149 -0.3201356 -0.8356352 -0.9098502 -0.1990435 -0.8702697 -1.378497 0.2396431 -0.706952 -0.9058155 0.1994214 -0.7844876 -0.640397 -0.07865548 -0.8701783 -1.030793 0.5091298 -0.3315575 -0.8688457 0.4250989 -0.6322485 -0.9599647 0.9950171 -0.4836575 -0.7053011 1.44 -0.7817549 -0.5959 4 -0.69969 -0.4693108 3.68 -0.7964634 -0.3821052 1.44 -0.9866827 -0.7187922 0.2292812 -0.7873002 -0.3290351 3.68 -0.8829755 -0.3895 4 -0.82639 -0.32145 4 -0.86846 -9.313226E-10 4 -0.92662 -0.0008699037 1.44 -1.058643 -0.0008112397 0.5915504 -1.078784 -0.3588874 0.4863534 -1.017682 -0.5422115 0.2475839 -0.897817 -0.4788161 0.2072742 -1.117745 -0.5653442 -0.2166507 -1.147012 -0.3395406 0.145395 -1.471092 -0.0005485322 0.3396189 -1.471092 -0.3883963 -0.3435383 -1.513598 -0.1238003 0.09510899 -1.748035 -0.0008112397 0.1532218 -1.75341 -0.002162989 -0.3978822 -1.98489 -0.0008112397 -0.03469586 -1.882343 -0.0008699037 1.44 -1.058643 -9.313226E-10 4 -0.92662 0.32145 4 -0.86815 0.3803654 1.44 -0.9866822 0.5959 4 -0.70157 -0.0008112397 0.5915504 -1.078784 0.7035608 1.44 -0.7817542 0.5406479 0.2475839 -0.8978173 0.3573241 0.4863534 -1.017682 -0.0005485322 0.3396189 -1.471092 0.4772528 0.2072742 -1.117745 0.5610182 -0.2166507 -1.147012 0.3384435 0.145395 -1.471092 0.3840703 -0.3435383 -1.513598 0.1221778 0.09510899 -1.748035 -0.0008112397 0.1532218 -1.75341 -0.002162989 -0.3978822 -1.98489 -0.0008112397 -0.03469586 -1.882343 0.3225 4 0.549 0 4 0.3844374 0 4 0.6090001 -0.3225 4 0.5500001 0.6 4 0.385 -0.5939 4 0.384 0 4 -0.15 0.7785 4 0.13547 -0.7785 4 0.1352 0.8426999 4 -0.15 -0.8399999 4 -0.15 0.7786 4 -0.45128 -0.7785 4 -0.4525 0.5959 4 -0.7015699 -0.5959 4 -0.69969 0.32145 4 -0.86815 -0.2861988 4 -0.4301526 0 4 -0.92662 -0.32145 4 -0.8684601</float_array>
          <technique_common>
            <accessor source="#TrunkBottomTop__mPltTreeOakTrunk-position-array" count="221" stride="3">
              <param name="X" type="float" />
              <param name="Y" type="float" />
              <param name="Z" type="float" />
            </accessor>
          </technique_common>
        </source>
        <source id="TrunkBottomTop__mPltTreeOakTrunk-normal">
          <float_array id="TrunkBottomTop__mPltTreeOakTrunk-normal-array" count="663">0.5909981 0.4383562 -0.6771037 0.5909981 0.4383562 -0.6771037 0.5909981 0.4383562 -0.6771037 -0.9354208 0.2563601 0.2446184 -0.9354208 0.2563601 0.2446184 -0.9354208 0.2563601 0.2446184 0 1 0 0 1 0 0 1 0 -0.9589041 0.1937378 0.2093934 -0.5694716 0.2387476 0.7866927 -0.9178082 0.2759295 0.2876712 -0.5596869 0.3131115 0.7671233 0.09784736 0.2015656 0.9745597 0.01174168 0.2798434 0.960861 -0.5596869 0.3131115 0.7671233 0.3013699 0.2054795 0.9315069 0.4637965 0.1819961 0.8669276 -0.09197652 0.6007828 0.7945206 0.4383562 0.2837573 0.853229 0.483366 0.1937378 0.853229 -0.4168297 0.704501 0.5753425 0.479452 0.3150685 0.8199608 0.08414873 0.2818004 0.9549902 0.1135029 0.7495108 0.6536204 0.1996086 0.7103718 0.6751468 -0.7573385 0.5733855 0.3111546 -0.9178082 0.2759295 0.2876712 -0.2759295 0.8825831 0.3796478 -0.9706458 0.2367906 0.0332681 -0.9589041 0.1937378 0.2093934 -0.9686888 0.1682975 -0.1800391 -0.6731898 0.7338552 0.09589041 -0.9471624 0.2857143 -0.1409002 -0.9589041 0.1819961 -0.2133072 -0.2876712 0.8727984 0.3953033 -0.9236791 0.3091977 -0.223092 -0.9530333 0.260274 0.1604697 -0.6986302 0.7162427 0.01174168 -0.9765166 0.2054795 0.0704501 -0.8610567 0.2994129 0.4129159 -0.03522505 0.3855186 0.9217221 -0.6125244 0.3835616 0.6908023 0.2054795 0.1878669 0.960861 -0.3131115 0.2465753 0.9178082 0.07827789 0.2426614 0.9667319 -0.7455969 0.1976517 0.6360078 0.05675147 0.2622309 0.962818 -0.01369863 0.02348337 1 0.1369863 0.3052838 0.9432485 -0.1722113 0.2152642 0.960861 -0.4951076 0.3287671 0.8043053 -0.5146771 0.1702544 0.8395303 -0.4383562 0.2837573 0.853229 -0.4755382 0.1428571 0.8688846 -0.1761252 0.1878669 0.9667319 -0.1682975 0.7671233 0.6203523 -0.07436399 0.3776908 0.9236791 -0.09393346 0.7945206 0.6007828 0.5322896 0.2818004 0.7984344 0.5303327 0.2641879 0.8062623 0.960861 0.1780822 0.2152642 0.3581213 0.7612525 0.5401174 0.8845401 0.369863 0.2857143 0.960861 0.2739726 -0.05675147 0.9882583 0.1350294 -0.08023483 0.9804305 0.1624266 -0.1076321 0.592955 0.7906067 0.1526419 0.2504892 0.8923679 0.3776908 0.2641879 0.8767123 0.4011742 0.6614481 0.7377691 0.1409002 0.9491194 0.3072407 -0.07632094 0.8649706 0.2681018 0.4246575 0.4011742 0.3463796 0.8473581 0.8727984 0.2720157 0.4050881 0.9706458 0.1741683 0.1663405 0.3052838 0.2426614 0.9197652 0.7358121 0.1898239 0.6516634 0.9452055 0.037182 0.3248532 0 0.109589 0.9941292 0.9569471 0.02152642 0.2876712 0.7534246 0.3111546 0.5792564 0.9432485 0.1272016 0.3052838 0.8297456 0.4579256 0.3170255 0.6027398 0.37182 0.7064579 0.6516634 0.1878669 0.7358121 0.6497065 0.3189824 0.6888454 0.6634051 0.1780822 0.7260274 0.5988258 0.704501 0.3816047 0.8630137 0.2191781 0.4559687 0.8767123 0.2367906 0.4168297 0.7827789 0.5968689 0.1780822 0.9099804 0.2544031 0.3268102 0.8649706 0.3072407 -0.3953033 0.6634051 0.3013699 -0.6849315 0.4892368 0.2465753 -0.8356164 0.6438356 0.7358121 -0.2093934 0.4461839 0.223092 -0.8669276 0.1135029 0.1643836 -0.9804305 0.5440313 0.5459883 -0.6379648 0.1252446 0.3091977 -0.9432485 0.09784736 0.1722113 -0.9804305 0.2622309 0.702544 -0.6634051 0.07827789 0.3600783 -0.9295499 0.5420744 0.2563601 -0.8003914 0.4892368 0.8571429 -0.1585127 0.778865 0.3052838 -0.5479452 0.6203523 0.1643836 -0.7671233 0.6203523 0.07827789 -0.7808219 0.9941292 0.1017613 0.01174168 0.7455969 0.02739726 -0.6653621 0.9119374 0.08023483 0.4011742 0.9980431 0.06849315 0 0.8688846 0.04696673 -0.4931507 0.9080235 0.06066536 0.4148728 0.9921722 0.04305284 -0.109589 0.6731898 0.07632094 0.7358121 0.9080235 0.03522505 -0.4148728 0.6829746 0.09393346 0.7240704 0.3483366 0.09197652 0.9334638 0.3561644 0.1056751 0.9295499 0.001956947 0.09197652 0.9960861 -0.3581213 0.1056751 0.9275929 -0.3522505 0.09197652 0.9315069 -0.6829746 0.09393346 0.7240704 -0.6731898 0.07632094 0.7358121 -0.9119374 0.08219178 0.4031311 -0.9060665 0.06066536 0.4168297 -0.9158513 0.1409002 0.3776908 -0.9980431 0.06849315 0 -0.9921722 0.04305284 -0.109589 -0.9960861 0.09784736 0.005870841 -0.9510763 0.05283757 0.3033268 -0.9099804 0.05479452 -0.4109589 -0.9099804 0.037182 -0.4129159 -0.9432485 0.04305284 0.3287671 -0.851272 0.2641879 0.4540117 -0.8375734 0.4677104 0.2818004 -0.6927593 0.3502935 0.630137 -0.7064579 0.1761252 0.6849315 -0.7221135 0.295499 0.6242661 -0.7358121 0.148728 0.6594912 -0.8864971 0.1604697 0.4324853 -0.6066536 0.7416829 0.2857143 -0.8630137 0.4305284 0.2641879 -0.9060665 0.3111546 0.2837573 -0.9178082 0.2191781 -0.332681 -0.630137 0.7416829 -0.2328767 -0.8277887 0.4677104 -0.3111546 -0.4931507 0.3013699 -0.816047 -0.3835616 0.1389433 -0.9138943 -0.483366 0.4227006 -0.7671233 -0.4344423 0.8864971 -0.1604697 -0.109589 0.3111546 -0.9432485 -0.1037182 0.1193738 -0.9882583 -0.04892368 0.146771 -0.9882583 -0.2407045 0.7749511 -0.5831702 -0.06849315 0.3992172 -0.9138943 -0.739726 0.2426614 -0.62818 -0.8101761 0.4540117 -0.369863 -0.6242661 0.2152642 -0.7514677 -0.8845401 0.04892368 -0.4637965 -0.704501 0.04109589 -0.7084149 -0.7240704 0.02544031 -0.6888454 -0.5303327 0.05088063 -0.8454012 -0.3972603 0.03913894 -0.9178082 -0.4951076 0.1232877 -0.8610567 -0.2446184 0.05088063 -0.9686888 -0.3600783 0.02935421 -0.9334638 -0.3600783 0.02935421 -0.9334638 0.02935421 0.02152642 -1 0.04305284 0.04305284 -0.9980431 0 0.334638 -0.9432485 -0.4637965 0.2876712 -0.8375734 -0.6614481 0.08610567 -0.7455969 -0.7318982 0.4853229 -0.479452 -0.8943248 0.1819961 -0.4090019 -0.7084149 0.4305284 -0.5596869 0 0.816047 -0.5792564 -0.81409 0.1389433 -0.5616438 -0.702544 0.3131115 -0.6379648 0 0.8180039 -0.5753425 -0.001956947 0.1917808 -0.9823875 0 0.3131115 -0.9491194 0.04305284 0.04305284 -0.9980431 0.02935421 0.02152642 -1 0.3561644 0.01956947 -0.9354208 0.4266145 0.03913894 -0.9041096 0.6790606 0.02348337 -0.7338552 0 0.334638 -0.9432485 0.6829746 0.03522505 -0.7299413 0.6986302 0.04109589 -0.7142857 0.4403131 0.3561644 -0.8238748 0 0.816047 -0.5792564 0.7064579 0.5107632 -0.4911937 0.8923679 0.1682975 -0.4168297 0.7103718 0.4285714 -0.5596869 0.816047 0.1350294 -0.5616438 0.704501 0.3091977 -0.6399217 0 0.8180039 -0.5753425 -0.001956947 0.1917808 -0.9823875 0 0.3131115 -0.9491194 0 1 0 0 1 0 0 1 0 0 1 0 0 1 0 0 1 0 0 1 0 0 1 0 0 1 0 0 1 0 0 1 0 0 1 0 0 1 0 0 1 0 0 1 0 0 1 0 0 1 0 0 1 0 0 1 0</float_array>
          <technique_common>
            <accessor source="#TrunkBottomTop__mPltTreeOakTrunk-normal-array" count="221" stride="3">
              <param name="X" type="float" />
              <param name="Y" type="float" />
              <param name="Z" type="float" />
            </accessor>
          </technique_common>
        </source>
        <source id="TrunkBottomTop__mPltTreeOakTrunk-texcoord">
          <float_array id="TrunkBottomTop__mPltTreeOakTrunk-texcoord-array" count="442">0.818494 0.9122607 0.7962158 0.9482567 0.7825894 0.9382772 0.818494 0.9122607 0.8065461 0.9491264 0.7962158 0.9482567 0.815137 0.9580529 0.8065461 0.9491264 0.818494 0.9122607 0.5110552 0.6754559 0.5337301 0.6657969 0.5206683 0.6737163 0.5337301 0.674052 0.5566949 0.6723583 0.5467613 0.6738079 0.5337301 0.674052 0.5533837 0.6789502 0.5609827 0.6777905 0.5421531 0.6790112 0.5518425 0.6844434 0.5652552 0.6911727 0.5337301 0.6798352 0.5590448 0.6985123 0.5671931 0.6947128 0.544686 0.6864729 0.549569 0.706157 0.5260395 0.6791333 0.5206683 0.6737163 0.5337301 0.6876783 0.5142291 0.6791638 0.5110552 0.6754559 0.5069505 0.6794537 0.5230945 0.6866407 0.5161974 0.6848402 0.5009689 0.6940109 0.5337301 0.7075608 0.5087663 0.7007096 0.5009232 0.6990768 0.5186084 0.706157 0.506447 0.70486 0.5164568 0.7130388 0.5513542 0.7134508 0.5337301 0.7152209 0.562417 0.7013199 0.5462272 0.7356069 0.5660334 0.7140612 0.5222706 0.7356069 0.5672083 0.7267109 0.566949 0.7023118 0.5823606 0.7107958 0.571252 0.7014267 0.5764248 0.6984665 0.5687038 0.6912184 0.5833371 0.6844587 0.5750362 0.6816968 0.5781491 0.6785535 0.5845274 0.7036393 0.5919433 0.6793164 0.5889983 0.6858778 0.5996338 0.6742351 0.5996338 0.6659952 0.6192569 0.6756085 0.5996338 0.6800336 0.6080568 0.6792096 0.6177462 0.6836957 0.6234989 0.6809644 0.6307164 0.6893873 0.6105897 0.68571 0.5996338 0.6869307 0.5996338 0.7050431 0.6154727 0.7036393 0.6249485 0.6999008 0.6330053 0.6986343 0.5996338 0.7132982 0.617258 0.7112077 0.6281682 0.707393 0.5881743 0.7356069 0.6121309 0.7356069 0.6324865 0.7157244 0.5665827 0.7606775 0.6327764 0.7090563 0.6383306 0.7083238 0.6341954 0.728664 0.6482643 0.7123064 0.6405585 0.6995651 0.6360723 0.692607 0.6488899 0.6861525 0.6437476 0.6789349 0.654902 0.687953 0.6481422 0.6810406 0.6460822 0.6766918 0.6578469 0.6813916 0.6608987 0.6752575 0.6655375 0.6680705 0.6655375 0.6763104 0.6867323 0.6766613 0.6655375 0.6821088 0.6851911 0.6812085 0.6922103 0.6823987 0.6739605 0.6812848 0.68365 0.685771 0.6962844 0.6932174 0.6764935 0.6878004 0.6908522 0.6990616 0.6986496 0.6983902 0.6655375 0.6890059 0.6655375 0.7144884 0.6831617 0.7127184 0.6942245 0.7060349 0.6558938 0.7342489 0.6732128 0.7342489 0.6294652 0.7606775 0.6498359 0.7606775 0.6703899 0.7606775 0.6276646 0.8764172 0.6480201 0.8764172 0.607309 0.8764172 0.6683909 0.8764172 0.6081026 0.7606775 0.5869383 0.8764172 0.5869383 0.7606775 0.5665827 0.8764172 0.5462272 0.7606775 0.5462272 0.8764172 0.5258564 0.7606775 0.5258564 0.8764172 0.5047379 0.7606775 0.5047379 0.8764172 0.5028916 0.7273823 0.4851453 0.7606775 0.4851453 0.8764172 0.4838026 0.7342489 0.5007248 0.7154498 0.4647745 0.7606775 0.4647745 0.8764172 0.5010147 0.7065232 0.4965133 0.7072099 0.4854505 0.7123827 0.4931411 0.6999008 0.4973068 0.6928817 0.4859388 0.685771 0.492546 0.6831769 0.4890211 0.6780041 0.4787823 0.6878004 0.4762493 0.6812848 0.472694 0.6754864 0.4678264 0.6680705 0.4678264 0.6821088 0.4678264 0.6763104 0.4631876 0.6752575 0.447364 0.6771191 0.4601358 0.6813916 0.4678264 0.6890059 0.450309 0.6861525 0.4433967 0.6811322 0.4370642 0.6946059 0.4571908 0.687953 0.4428626 0.6995651 0.4351721 0.6986191 0.4678264 0.7144732 0.4505531 0.7119707 0.4643015 0.7342489 0.444419 0.7606775 0.444419 0.8764172 0.4388342 0.8619516 0.4337835 0.7606775 0.4399634 0.7067216 0.4332494 0.8619516 0.4359808 0.8764172 0.4331731 0.8764172 0.4242161 0.8764172 0.426215 0.7606775 0.4233921 0.7090563 0.430869 0.7085832 0.4329442 0.7071183 0.4311589 0.698146 0.432929 0.6946975 0.4279698 0.6854048 0.4233921 0.687007 0.4317845 0.6854048 0.4254673 0.6814374 0.4233921 0.6830243 0.4233921 0.6699016 0.4233921 0.6780194 0.7081712 0.7606775 0.7081712 0.8764172 0.7007553 0.8764172 0.7013352 0.7606775 0.6887465 0.8764172 0.7089799 0.7086138 0.6887465 0.7606775 0.7007095 0.7064164 0.7025712 0.7078202 0.7093157 0.6865644 0.7016404 0.6976882 0.7002365 0.6946059 0.7042038 0.6865797 0.7029679 0.6848707 0.7067216 0.6814679 0.7093157 0.6825818 0.7093157 0.6694591 0.7093157 0.6775769 0.8919203 0.7894408 0.8531929 0.8093385 0.8535287 0.7824826 0.815137 0.7894408 0.9244679 0.8092164 0.782269 0.8092164 0.8522774 0.8737469 0.9462272 0.838819 0.7608301 0.838819 0.9538567 0.8737469 0.7532006 0.8737469 0.9462272 0.9086748 0.7608301 0.9086748 0.9244679 0.9382772 0.7825894 0.9382772 0.8919203 0.9580529 0.818494 0.9122607 0.8535287 0.9649958 0.815137 0.9580529</float_array>
          <technique_common>
            <accessor source="#TrunkBottomTop__mPltTreeOakTrunk-texcoord-array" count="221" stride="2">
              <param name="S" type="float" />
              <param name="T" type="float" />
            </accessor>
          </technique_common>
        </source>
        <vertices id="TrunkBottomTop__mPltTreeOakTrunk-vertex">
          <input semantic="POSITION" source="#TrunkBottomTop__mPltTreeOakTrunk-position" />
        </vertices>
        <triangles material="mPltTreeOakTrunk" count="332">
          <input semantic="VERTEX" source="#TrunkBottomTop__mPltTreeOakTrunk-vertex" offset="0" />
          <input semantic="NORMAL" source="#TrunkBottomTop__mPltTreeOakTrunk-normal" offset="1" />
          <input semantic="TEXCOORD" source="#TrunkBottomTop__mPltTreeOakTrunk-texcoord" offset="2" set="0" />
          <p>0 0 0 1 1 1 2 2 2 3 3 3 4 4 4 5 5 5 6 6 6 7 7 7 8 8 8 9 9 9 10 10 10 11 11 11 10 10 10 12 12 12 11 11 11 10 10 10 13 13 13 14 14 14 15 15 15 10 10 10 14 14 14 13 13 13 16 16 16 14 14 14 17 17 17 16 16 16 13 13 13 15 15 15 14 14 14 18 18 18 14 14 14 16 16 16 18 18 18 19 19 19 16 16 16 17 17 17 19 19 19 18 18 18 16 16 16 17 17 17 20 20 20 19 19 19 21 21 21 15 15 15 18 18 18 20 20 20 22 22 22 19 19 19 20 20 20 23 23 23 22 22 22 18 18 18 19 19 19 24 24 24 21 21 21 18 18 18 24 24 24 22 22 22 25 25 25 19 19 19 25 25 25 24 24 24 19 19 19 21 21 21 26 26 26 15 15 15 26 26 26 27 27 27 15 15 15 28 28 28 21 21 21 24 24 24 26 26 26 29 29 29 27 27 27 27 27 27 29 29 29 30 30 30 30 30 30 29 29 29 31 31 31 32 32 32 26 26 26 21 21 21 28 28 28 32 32 32 21 21 21 33 33 33 29 29 29 26 26 26 31 31 31 29 29 29 33 33 33 32 32 32 33 33 33 26 26 26 34 34 34 31 31 31 33 33 33 32 32 32 28 28 28 35 35 35 35 35 35 28 28 28 24 24 24 25 25 25 35 35 35 24 24 24 36 36 36 34 34 34 33 33 33 36 36 36 37 37 37 34 34 34 32 32 32 38 38 38 33 33 33 38 38 38 36 36 36 33 33 33 38 38 38 32 32 32 35 35 35 39 39 39 36 36 36 38 38 38 37 37 37 36 36 36 39 39 39 38 38 38 35 35 35 40 40 40 40 40 40 39 39 39 38 38 38 25 25 25 41 41 41 35 35 35 41 41 41 25 25 25 22 22 22 35 35 35 42 42 42 40 40 40 41 41 41 42 42 42 35 35 35 43 43 43 41 41 41 22 22 22 43 43 43 22 22 22 23 23 23 41 41 41 44 44 44 42 42 42 41 41 41 43 43 43 45 45 45 42 42 42 44 44 44 46 46 46 40 40 40 42 42 42 46 46 46 44 44 44 41 41 41 47 47 47 41 41 41 45 45 45 47 47 47 43 43 43 48 48 48 45 45 45 23 23 23 48 48 48 43 43 43 49 49 49 45 45 45 48 48 48 49 49 49 47 47 47 45 45 45 50 50 50 48 48 48 23 23 23 50 50 50 49 49 49 48 48 48 23 23 23 51 51 51 50 50 50 49 49 49 50 50 50 51 51 51 51 51 51 23 23 23 52 52 52 51 51 51 52 52 52 53 53 53 52 52 52 54 54 54 53 53 53 53 53 53 54 54 54 55 55 55 56 56 56 51 51 51 53 53 53 56 56 56 49 49 49 51 51 51 57 57 57 53 53 53 55 55 55 58 58 58 56 56 56 53 53 53 58 58 58 53 53 53 57 57 57 57 57 57 55 55 55 59 59 59 55 55 55 60 60 60 59 59 59 59 59 59 60 60 60 61 61 61 59 59 59 62 62 62 57 57 57 58 58 58 57 57 57 62 62 62 63 63 63 59 59 59 61 61 61 63 63 63 62 62 62 59 59 59 61 61 61 64 64 64 63 63 63 64 64 64 61 61 61 65 65 65 65 65 65 66 66 66 64 64 64 62 62 62 63 63 63 67 67 67 63 63 63 64 64 64 67 67 67 68 68 68 58 58 58 62 62 62 68 68 68 62 62 62 67 67 67 58 58 58 68 68 68 69 69 69 69 69 69 68 68 68 67 67 67 56 56 56 58 58 58 69 69 69 56 56 56 69 69 69 49 49 49 70 70 70 67 67 67 64 64 64 70 70 70 69 69 69 67 67 67 66 66 66 71 71 71 64 64 64 71 71 71 70 70 70 64 64 64 66 66 66 72 72 72 71 71 71 73 73 73 69 69 69 70 70 70 69 69 69 73 73 73 49 49 49 74 74 74 70 70 70 71 71 71 74 74 74 73 73 73 70 70 70 75 75 75 71 71 71 72 72 72 75 75 75 74 74 74 71 71 71 73 73 73 76 76 76 49 49 49 76 76 76 47 47 47 49 49 49 74 74 74 77 77 77 73 73 73 73 73 73 77 77 77 76 76 76 74 74 74 75 75 75 78 78 78 47 47 47 76 76 76 79 79 79 47 47 47 79 79 79 44 44 44 75 75 75 80 80 80 78 78 78 72 72 72 80 80 80 75 75 75 78 78 78 80 80 80 81 81 81 81 81 81 80 80 80 72 72 72 74 74 74 78 78 78 82 82 82 74 74 74 82 82 82 77 77 77 83 83 83 78 78 78 81 81 81 82 82 82 78 78 78 83 83 83 72 72 72 84 84 84 81 81 81 84 84 84 83 83 83 81 81 81 84 84 84 72 72 72 85 85 85 84 84 84 85 85 85 86 86 86 85 85 85 87 87 87 86 86 86 88 88 88 83 83 83 84 84 84 86 86 86 88 88 88 84 84 84 87 87 87 89 89 89 86 86 86 90 90 90 89 89 89 87 87 87 89 89 89 91 91 91 86 86 86 88 88 88 86 86 86 91 91 91 89 89 89 90 90 90 92 92 92 92 92 92 91 91 91 89 89 89 90 90 90 93 93 93 92 92 92 93 93 93 94 94 94 92 92 92 94 94 94 91 91 91 92 92 92 93 93 93 95 95 95 94 94 94 88 88 88 91 91 91 96 96 96 96 96 96 91 91 91 94 94 94 95 95 95 97 97 97 94 94 94 98 98 98 97 97 97 95 95 95 99 99 99 96 96 96 94 94 94 94 94 94 97 97 97 99 99 99 100 100 100 97 97 97 98 98 98 100 100 100 99 99 99 97 97 97 98 98 98 101 101 101 100 100 100 96 96 96 99 99 99 102 102 102 99 99 99 100 100 100 102 102 102 101 101 101 103 103 103 100 100 100 103 103 103 102 102 102 100 100 100 101 101 101 104 104 104 103 103 103 105 105 105 96 96 96 102 102 102 105 105 105 88 88 88 96 96 96 88 88 88 105 105 105 106 106 106 106 106 106 105 105 105 102 102 102 83 83 83 88 88 88 106 106 106 107 107 107 102 102 102 103 103 103 107 107 107 106 106 106 102 102 102 108 108 108 107 107 107 103 103 103 108 108 108 103 103 103 104 104 104 83 83 83 106 106 106 109 109 109 82 82 82 83 83 83 109 109 109 106 106 106 110 110 110 109 109 109 82 82 82 109 109 109 111 111 111 82 82 82 111 111 111 77 77 77 109 109 109 110 110 110 112 112 112 109 109 109 112 112 112 111 111 111 110 110 110 106 106 106 113 113 113 110 110 110 113 113 113 112 112 112 106 106 106 107 107 107 113 113 113 111 111 111 112 112 112 114 114 114 112 112 112 115 115 115 114 114 114 112 112 112 113 113 113 115 115 115 111 111 111 114 114 114 116 116 116 113 113 113 117 117 117 115 115 115 118 118 118 111 111 111 116 116 116 111 111 111 118 118 118 77 77 77 118 118 118 116 116 116 119 119 119 77 77 77 118 118 118 76 76 76 120 120 120 118 118 118 119 119 119 118 118 118 120 120 120 76 76 76 120 120 120 119 119 119 121 121 121 76 76 76 120 120 120 79 79 79 79 79 79 120 120 120 121 121 121 79 79 79 121 121 121 122 122 122 79 79 79 122 122 122 44 44 44 121 121 121 123 123 123 122 122 122 44 44 44 122 122 122 124 124 124 122 122 122 123 123 123 124 124 124 46 46 46 44 44 44 124 124 124 123 123 123 125 125 125 124 124 124 124 124 124 125 125 125 126 126 126 46 46 46 124 124 124 126 126 126 125 125 125 127 127 127 126 126 126 128 128 128 46 46 46 126 126 126 128 128 128 40 40 40 46 46 46 126 126 126 127 127 127 129 129 129 127 127 127 130 130 130 129 129 129 128 128 128 126 126 126 131 131 131 126 126 126 129 129 129 131 131 131 128 128 128 132 132 132 40 40 40 40 40 40 132 132 132 39 39 39 129 129 129 130 130 130 133 133 133 130 130 130 134 134 134 133 133 133 132 132 132 135 135 135 39 39 39 39 39 39 135 135 135 37 37 37 136 136 136 135 135 135 132 132 132 37 37 37 135 135 135 136 136 136 137 137 137 132 132 132 128 128 128 137 137 137 136 136 136 132 132 132 137 137 137 128 128 128 131 131 131 136 136 136 138 138 138 37 37 37 136 136 136 137 137 137 138 138 138 139 139 139 37 37 37 138 138 138 139 139 139 138 138 138 140 140 140 141 141 141 139 139 139 140 140 140 140 140 140 142 142 142 141 141 141 137 137 137 143 143 143 138 138 138 138 138 138 143 143 143 140 140 140 142 142 142 140 140 140 144 144 144 144 144 144 140 140 140 143 143 143 142 142 142 144 144 144 145 145 145 146 146 146 142 142 142 145 145 145 144 144 144 147 147 147 145 145 145 147 147 147 144 144 144 143 143 143 145 145 145 148 148 148 146 146 146 147 147 147 148 148 148 145 145 145 146 146 146 148 148 148 149 149 149 148 148 148 147 147 147 149 149 149 150 150 150 146 146 146 149 149 149 147 147 147 151 151 151 149 149 149 151 151 151 150 150 150 149 149 149 152 152 152 147 147 147 143 143 143 151 151 151 153 153 153 150 150 150 153 153 153 154 154 154 150 150 150 155 155 155 154 154 154 153 153 153 156 156 156 151 151 151 147 147 147 156 156 156 153 153 153 151 151 151 152 152 152 156 156 156 147 147 147 157 157 157 155 155 155 153 153 153 153 153 153 156 156 156 157 157 157 157 157 157 158 158 158 155 155 155 156 156 156 152 152 152 159 159 159 159 159 159 152 152 152 143 143 143 137 137 137 159 159 159 143 143 143 137 137 137 131 131 131 159 159 159 156 156 156 160 160 160 157 157 157 160 160 160 156 156 156 159 159 159 159 159 159 131 131 131 161 161 161 161 161 161 160 160 160 159 159 159 131 131 131 129 129 129 161 161 161 129 129 129 133 133 133 161 161 161 133 133 133 162 162 162 161 161 161 162 162 162 160 160 160 161 161 161 133 133 133 134 134 134 162 162 162 134 134 134 163 163 163 162 162 162 163 163 163 164 164 164 162 162 162 160 160 160 162 162 162 165 165 165 164 164 164 165 165 165 162 162 162 157 157 157 160 160 160 166 166 166 166 166 166 160 160 160 165 165 165 158 158 158 157 157 157 166 166 166 165 165 165 164 164 164 167 167 167 168 168 168 167 167 167 164 164 164 169 169 169 167 167 167 168 168 168 167 167 167 169 169 169 170 170 170 171 171 171 167 167 167 170 170 170 167 167 167 171 171 171 165 165 165 165 165 165 171 171 171 172 172 172 173 173 173 165 165 165 172 172 172 165 165 165 173 173 173 166 166 166 174 174 174 158 158 158 166 166 166 173 173 173 174 174 174 166 166 166 158 158 158 174 174 174 175 175 175 175 175 175 174 174 174 173 173 173 176 176 176 158 158 158 175 175 175 173 173 173 172 172 172 177 177 177 175 175 175 173 173 173 177 177 177 176 176 176 175 175 175 177 177 177 177 177 177 172 172 172 178 178 178 179 179 179 176 176 176 177 177 177 177 177 177 178 178 178 180 180 180 179 179 179 177 177 177 180 180 180 178 178 178 181 181 181 180 180 180 182 182 182 179 179 179 180 180 180 180 180 180 181 181 181 183 183 183 180 180 180 183 183 183 182 182 182 184 184 184 185 185 185 186 186 186 187 187 187 184 184 184 186 186 186 187 187 187 186 186 186 188 188 188 189 189 189 184 184 184 187 187 187 190 190 190 187 187 187 188 188 188 190 190 190 188 188 188 117 117 117 113 113 113 190 190 190 117 117 117 113 113 113 107 107 107 190 190 190 107 107 107 108 108 108 190 190 190 190 190 190 108 108 108 187 187 187 108 108 108 191 191 191 187 187 187 191 191 191 108 108 108 104 104 104 192 192 192 189 189 189 187 187 187 187 187 187 191 191 191 192 192 192 192 192 192 193 193 193 189 189 189 104 104 104 194 194 194 191 191 191 192 192 192 191 191 191 194 194 194 104 104 104 195 195 195 194 194 194 194 194 194 196 196 196 192 192 192 194 194 194 195 195 195 196 196 196 196 196 196 193 193 193 192 192 192 195 195 195 197 197 197 196 196 196 193 193 193 196 196 196 198 198 198 196 196 196 197 197 197 198 198 198 199 199 199 193 193 193 198 198 198 197 197 197 200 200 200 198 198 198 201 201 201 199 199 199 198 198 198 201 201 201 198 198 198 200 200 200 202 202 202 203 203 203 204 204 204 204 204 204 203 203 203 205 205 205 202 202 202 206 206 206 203 203 203 205 205 205 203 203 203 207 207 207 206 206 206 208 208 208 203 203 203 203 203 203 208 208 208 207 207 207 209 209 209 208 208 208 206 206 206 207 207 207 208 208 208 210 210 210 209 209 209 211 211 211 208 208 208 210 210 210 208 208 208 212 212 212 213 213 213 208 208 208 211 211 211 208 208 208 214 214 214 212 212 212 215 215 215 208 208 208 213 213 213 208 208 208 216 216 216 214 214 214 217 217 217 208 208 208 215 215 215 208 208 208 218 218 218 216 216 216 219 219 219 208 208 208 217 217 217 208 208 208 220 220 220 218 218 218 219 219 219 220 220 220 208 208 208 </p>
        </triangles>
      </mesh>
    </geometry>
  </library_geometries>
  <library_controllers>
    <controller id="Armature_TrunkBottomTop__mPltTreeOakTrunk-mesh">
      <skin source="#TrunkBottomTop__mPltTreeOakTrunk-mesh">
        <bind_shape_matrix>1 0 0 0 0 1 0 0 0 0 1 0 0 0 0 1</bind_shape_matrix>
        <source id="TrunkBottomTop__mPltTreeOakTrunk-mesh-joint">
          <Name_array id="TrunkBottomTop__mPltTreeOakTrunk-mesh-joint-array" count="1">Root</Name_array>
          <technique_common>
            <accessor source="#TrunkBottomTop__mPltTreeOakTrunk-mesh-joint-array" count="1" stride="1">
              <param name="JOINT" type="name" />
            </accessor>
          </technique_common>
        </source>
        <source id="TrunkBottomTop__mPltTreeOakTrunk-mesh-inv_bind_matrix">
          <float_array id="TrunkBottomTop__mPltTreeOakTrunk-mesh-inv_bind_matrix-array" count="16">1 0 0 0 0 1 0 0 0 0 1 0 0 0 0 1</float_array>
          <technique_common>
            <accessor source="#TrunkBottomTop__mPltTreeOakTrunk-mesh-inv_bind_matrix-array" count="1" stride="16">
              <param name="TRANSFORM" type="float4x4" />
            </accessor>
          </technique_common>
        </source>
        <source id="TrunkBottomTop__mPltTreeOakTrunk-mesh-weight">
          <float_array id="TrunkBottomTop__mPltTreeOakTrunk-mesh-weight-array" count="1">1</float_array>
          <technique_common>
            <accessor source="#TrunkBottomTop__mPltTreeOakTrunk-mesh-weight-array" count="1" stride="1">
              <param name="WEIGHT" type="float" />
            </accessor>
          </technique_common>
        </source>
        <joints>
          <input semantic="JOINT" source="#TrunkBottomTop__mPltTreeOakTrunk-mesh-joint" />
          <input semantic="INV_BIND_MATRIX" source="#TrunkBottomTop__mPltTreeOakTrunk-mesh-inv_bind_matrix" />
        </joints>
        <vertex_weights count="221">
          <input semantic="JOINT" source="#TrunkBottomTop__mPltTreeOakTrunk-mesh-joint" offset="0" />
          <input semantic="WEIGHT" source="#TrunkBottomTop__mPltTreeOakTrunk-mesh-weight" offset="1" />
          <vcount>1 1 1 1 1 1 1 1 1 1 1 1 1 1 1 1 1 1 1 1 1 1 1 1 1 1 1 1 1 1 1 1 1 1 1 1 1 1 1 1 1 1 1 1 1 1 1 1 1 1 1 1 1 1 1 1 1 1 1 1 1 1 1 1 1 1 1 1 1 1 1 1 1 1 1 1 1 1 1 1 1 1 1 1 1 1 1 1 1 1 1 1 1 1 1 1 1 1 1 1 1 1 1 1 1 1 1 1 1 1 1 1 1 1 1 1 1 1 1 1 1 1 1 1 1 1 1 1 1 1 1 1 1 1 1 1 1 1 1 1 1 1 1 1 1 1 1 1 1 1 1 1 1 1 1 1 1 1 1 1 1 1 1 1 1 1 1 1 1 1 1 1 1 1 1 1 1 1 1 1 1 1 1 1 1 1 1 1 1 1 1 1 1 1 1 1 1 1 1 1 1 1 1 1 1 1 1 1 1 1 1 1 1 1 1 1 1 1 1 1 1 </vcount>
          <v>0 0 0 0 0 0 0 0 0 0 0 0 0 0 0 0 0 0 0 0 0 0 0 0 0 0 0 0 0 0 0 0 0 0 0 0 0 0 0 0 0 0 0 0 0 0 0 0 0 0 0 0 0 0 0 0 0 0 0 0 0 0 0 0 0 0 0 0 0 0 0 0 0 0 0 0 0 0 0 0 0 0 0 0 0 0 0 0 0 0 0 0 0 0 0 0 0 0 0 0 0 0 0 0 0 0 0 0 0 0 0 0 0 0 0 0 0 0 0 0 0 0 0 0 0 0 0 0 0 0 0 0 0 0 0 0 0 0 0 0 0 0 0 0 0 0 0 0 0 0 0 0 0 0 0 0 0 0 0 0 0 0 0 0 0 0 0 0 0 0 0 0 0 0 0 0 0 0 0 0 0 0 0 0 0 0 0 0 0 0 0 0 0 0 0 0 0 0 0 0 0 0 0 0 0 0 0 0 0 0 0 0 0 0 0 0 0 0 0 0 0 0 0 0 0 0 0 0 0 0 0 0 0 0 0 0 0 0 0 0 0 0 0 0 0 0 0 0 0 0 0 0 0 0 0 0 0 0 0 0 0 0 0 0 0 0 0 0 0 0 0 0 0 0 0 0 0 0 0 0 0 0 0 0 0 0 0 0 0 0 0 0 0 0 0 0 0 0 0 0 0 0 0 0 0 0 0 0 0 0 0 0 0 0 0 0 0 0 0 0 0 0 0 0 0 0 0 0 0 0 0 0 0 0 0 0 0 0 0 0 0 0 0 0 0 0 0 0 0 0 0 0 0 0 0 0 0 0 0 0 0 0 0 0 0 0 0 0 0 0 0 0 0 0 0 0 0 0 0 0 0 0 0 0 0 0 0 0 0 0 0 0 0 0 0 0 0 0 0 0 0 0 0 0 0 0 0 0 0 0 0 0 0 0 0 0 0 0 0 0 0 0 0 0 0 0 0 0 0 0 0 0 0 0 0 0 0 0 0 0 0 0 </v>
        </vertex_weights>
      </skin>
    </controller>
  </library_controllers>
  <library_visual_scenes>
    <visual_scene id="Scene" name="Scene">
      <node id="Armature" name="Armature" type="NODE">
        <matrix sid="transform">1 0 0 0 0 1 0 0 0 0 1 0 0 0 0 1</matrix>
        <node id="Armature_Root" name="Root" sid="Root" type="JOINT">
          <matrix sid="transform">1 0 0 0 0 1 0 0 0 0 1 0 0 0 0 1</matrix>
        </node>
      </node>
      <node id="TrunkBottomTop__mPltTreeOakTrunk" name="TrunkBottomTop__mPltTreeOakTrunk" type="NODE">
        <instance_controller url="#Armature_TrunkBottomTop__mPltTreeOakTrunk-mesh">
          <skeleton>#Armature_Root</skeleton>
          <bind_material>
            <technique_common>
              <instance_material symbol="mPltTreeOakTrunk" target="#mPltTreeOakTrunk" />
              <bind_vertex_input semantic="CHANNEL0" input_semantic="TEXCOORD" input_set="0" />
              <bind_vertex_input semantic="CHANNEL1" input_semantic="TEXCOORD" input_set="1" />
              <bind_vertex_input semantic="CHANNEL2" input_semantic="TEXCOORD" input_set="2" />
            </technique_common>
          </bind_material>
        </instance_controller>
      </node>
    </visual_scene>
  </library_visual_scenes>
  <scene>
    <instance_visual_scene url="#Scene" />
  </scene>
</COLLADA>